<?xml version="1.0" encoding="UTF-8"?>
<svg width="17px" height="15px" viewBox="0 0 17 15" version="1.1" xmlns="http://www.w3.org/2000/svg" xmlns:xlink="http://www.w3.org/1999/xlink">
    <!-- Generator: Sketch 57.1 (83088) - https://sketch.com -->
    <title>alert</title>
    <desc>Created with Sketch.</desc>
    <g id="ui-app-stroogo" stroke="none" stroke-width="1" fill="none" fill-rule="evenodd">
        <g id="app-chef---cozinha-(detalhe-do-pedido)" transform="translate(-13.000000, -253.000000)" fill="#000000" fill-rule="nonzero">
            <g id="card-pedido" transform="translate(5.000000, 106.000000)">
                <g id="card-produto-G" transform="translate(8.000000, 95.000000)">
                    <path d="M8.33334964,52 C8.87135394,52 9.35893257,52.2585514 9.66415327,52.6988251 L9.74277488,52.8233476 L16.4419644,64.5048583 C16.7396578,65.0241972 16.7417417,65.6459212 16.4471042,66.1672132 C16.1771567,66.6451835 15.710168,66.9466472 15.1787142,66.9935719 L15.0322735,67 L1.63432332,67 C1.04296429,67 0.513987971,66.6887944 0.219492669,66.1672132 C-0.0483583568,65.6933114 -0.0708715744,65.1363781 0.150909403,64.6488741 L0.224771479,64.5048583 L6.92392439,52.8233476 C7.21955057,52.3076903 7.74643585,52 8.33334964,52 Z M8.33347076,52.9889429 C8.12711616,52.9889429 7.94515907,53.0779946 7.82110191,53.2366186 L7.76405343,53.3216382 L1.06490052,65.0031488 C0.944462778,65.2129097 0.943477713,65.4641092 1.06253899,65.6747453 C1.16459152,65.8552905 1.33612389,65.9734583 1.53360311,66.003536 L1.63430341,66.0111149 L15.0322536,66.0111149 C15.2713186,66.0111149 15.4849674,65.8853814 15.604018,65.6747453 C15.7063908,65.4940823 15.7202996,65.2838408 15.6463403,65.0953462 L15.602041,65.0031488 L8.90288809,53.3216382 C8.78172866,53.1101558 8.57421779,52.9889429 8.33347076,52.9889429 Z M8.33333333,62.8333333 C8.7929304,62.8333333 9.16666667,63.2071833 9.16666667,63.6667399 C9.16666667,64.1262966 8.7929304,64.5 8.33333333,64.5 C7.87373626,64.5 7.5,64.1262966 7.5,63.6667399 C7.5,63.2071833 7.87373626,62.8333333 8.33333333,62.8333333 Z M8.77875458,57 C8.99252381,57 9.16666667,57.164397 9.16666667,57.3663564 L9.16663004,58.08081 C9.16663004,58.3366578 9.153037,58.5956247 9.12570696,58.85011 L8.83624542,61.570567 C8.81006081,61.8153383 8.59385714,62 8.33331502,62 C8.07277289,62 7.85639194,61.8152034 7.83038462,61.570567 L7.54092308,58.85011 C7.51373663,58.5953412 7.5,58.3366439 7.5,58.08081 L7.5,57.3663564 C7.5,57.1644073 7.67413553,57 7.88776557,57 L8.77875458,57 Z" id="alert"></path>
                </g>
            </g>
        </g>
    </g>
</svg>