<?xml version="1.0" encoding="UTF-8"?>
<svg width="26px" height="30px" viewBox="0 0 26 30" version="1.1" xmlns="http://www.w3.org/2000/svg" xmlns:xlink="http://www.w3.org/1999/xlink">
    <!-- Generator: Sketch 57.1 (83088) - https://sketch.com -->
    <title>Combined Shape</title>
    <desc>Created with Sketch.</desc>
    <g id="ui-app-stroogo" stroke="none" stroke-width="1" fill="none" fill-rule="evenodd">
        <g id="app-chef---cozinha-(detalhe-do-pedido---aceito)-" transform="translate(-174.000000, -275.000000)" fill="#4D4D4D" fill-rule="nonzero">
            <g id="modal-conclusão">
                <g id="card-pedido" transform="translate(5.000000, 206.000000)">
                    <g id="time" transform="translate(12.000000, 67.000000)">
                        <path d="M169.692441,6.61511835 C176.730954,6.61511835 182.384882,12.2690463 182.384882,19.3075592 C182.384882,26.3460721 176.730954,32 169.692441,32 C162.654134,32 157,26.3460721 157,19.3075592 C157,12.2690463 162.653928,6.61511835 169.692441,6.61511835 Z M169.692441,8.9235841 C163.923337,8.9235841 159.308466,13.5384552 159.308466,19.3075592 C159.308466,25.0766632 163.923337,29.6915343 169.692441,29.6915343 C175.461545,29.6915343 180.076416,25.0766632 180.076416,19.3075592 C180.076416,13.5384552 175.461545,8.9235841 169.692441,8.9235841 Z M169.692853,12.3847992 C170.385022,12.3847992 170.847003,12.8459773 170.847003,13.5389497 L170.847003,18.8469374 L175.115934,23.1158683 C175.577112,23.5770464 175.577112,24.2700188 175.115934,24.7311762 C174.884943,24.962167 174.653953,25.0772607 174.307868,25.0772607 C173.96164,25.0770752 173.730649,24.9619837 173.499658,24.7309908 L168.884787,20.1161197 C168.6546,19.8851289 168.538702,19.6541381 168.538702,19.3080537 L168.538702,13.5389497 C168.538702,12.8467808 168.99988,12.3847992 169.692853,12.3847992 Z M172.000082,2 C172.692251,2 173.154233,2.46117805 173.154233,3.15415046 C173.154233,3.84712287 172.692251,4.30830092 172.000082,4.30830092 L167.385211,4.30830092 C166.693042,4.30830092 166.231061,3.84712287 166.231061,3.15415046 C166.231061,2.4619816 166.692239,2 167.385211,2 L172.000082,2 Z" id="Combined-Shape"></path>
                    </g>
                </g>
            </g>
        </g>
    </g>
</svg>