<?xml version="1.0" encoding="UTF-8"?>
<svg width="26px" height="30px" viewBox="0 0 26 30" version="1.1" xmlns="http://www.w3.org/2000/svg" xmlns:xlink="http://www.w3.org/1999/xlink">
    <!-- Generator: Sketch 57.1 (83088) - https://sketch.com -->
    <title>Combined Shape</title>
    <desc>Created with Sketch.</desc>
    <g id="ui-app-stroogo" stroke="none" stroke-width="1" fill="none" fill-rule="evenodd">
        <g id="app-chef---cozinha-(detalhe-do-pedido---aceite)" transform="translate(-20.000000, -476.000000)" fill="#49751B" fill-rule="nonzero">
            <g id="card-pedido" transform="translate(5.000000, 106.000000)">
                <path d="M27.6924408,374.615118 C34.7309537,374.615118 40.3848817,380.269046 40.3848817,387.307559 C40.3848817,394.346072 34.7309537,400 27.6924408,400 C20.654134,400 15,394.346072 15,387.307559 C15,380.269046 20.6539279,374.615118 27.6924408,374.615118 Z M27.6924408,376.923584 C21.9233368,376.923584 17.3084657,381.538455 17.3084657,387.307559 C17.3084657,393.076663 21.9233368,397.691534 27.6924408,397.691534 C33.4615448,397.691534 38.0764159,393.076663 38.0764159,387.307559 C38.0764159,381.538455 33.4615448,376.923584 27.6924408,376.923584 Z M27.6928529,380.384799 C28.3850218,380.384799 28.8470034,380.845977 28.8470034,381.53895 L28.8470034,386.846937 L33.1159343,391.115868 C33.5771123,391.577046 33.5771123,392.270019 33.1159343,392.731176 C32.8849435,392.962167 32.6539527,393.077261 32.3078682,393.077261 C31.9616396,393.077075 31.7306488,392.961984 31.499658,392.730991 L26.8847869,388.11612 C26.6545996,387.885129 26.5387024,387.654138 26.5387024,387.308054 L26.5387024,381.53895 C26.5387024,380.846781 26.9998805,380.384799 27.6928529,380.384799 Z M30.0000824,370 C30.6922513,370 31.1542329,370.461178 31.1542329,371.15415 C31.1542329,371.847123 30.6922513,372.308301 30.0000824,372.308301 L25.3852113,372.308301 C24.6930425,372.308301 24.2310609,371.847123 24.2310609,371.15415 C24.2310609,370.461982 24.6922389,370 25.3852113,370 L30.0000824,370 Z" id="Combined-Shape"></path>
            </g>
        </g>
    </g>
</svg>