<?xml version="1.0" encoding="UTF-8"?>
<svg width="26px" height="31px" viewBox="0 0 26 31" version="1.1" xmlns="http://www.w3.org/2000/svg" xmlns:xlink="http://www.w3.org/1999/xlink">
    <!-- Generator: Sketch 57.1 (83088) - https://sketch.com -->
    <title>Combined Shape</title>
    <desc>Created with Sketch.</desc>
    <g id="ui-app-stroogo" stroke="none" stroke-width="1" fill="none" fill-rule="evenodd">
        <g id="app-chef---cozinha-(início--pedidos)" transform="translate(-192.000000, -200.000000)" fill="#E02020" fill-rule="nonzero">
            <g id="card-pedido" transform="translate(5.000000, 186.000000)">
                <path d="M200.187792,19.5849778 C207.226305,19.5849778 212.880233,25.2389057 212.880233,32.2774186 C212.880233,39.3159315 207.226305,44.9698595 200.187792,44.9698595 C193.149485,44.9698595 187.495351,39.3159315 187.495351,32.2774186 C187.495351,25.2389057 193.149279,19.5849778 200.187792,19.5849778 Z M200.187792,21.8934436 C194.418688,21.8934436 189.803817,26.5083147 189.803817,32.2774186 C189.803817,38.0465226 194.418688,42.6613937 200.187792,42.6613937 C205.956896,42.6613937 210.571767,38.0465226 210.571767,32.2774186 C210.571767,26.5083147 205.956896,21.8934436 200.187792,21.8934436 Z M200.188204,25.3546587 C200.880373,25.3546587 201.342355,25.8158367 201.342355,26.5088092 L201.342355,31.8167969 L205.611286,36.0857278 C206.072464,36.5469058 206.072464,37.2398783 205.611286,37.7010357 C205.380295,37.9320265 205.149304,38.0471201 204.80322,38.0471201 C204.456991,38.0469347 204.226,37.9318431 203.995009,37.7008503 L199.380138,33.0859792 C199.149951,32.8549884 199.034054,32.6239976 199.034054,32.2779131 L199.034054,26.5088092 C199.034054,25.8166403 199.495232,25.3546587 200.188204,25.3546587 Z M202.495434,14.9698595 C203.187603,14.9698595 203.649584,15.4310375 203.649584,16.1240099 C203.649584,16.8169823 203.187603,17.2781604 202.495434,17.2781604 L197.880563,17.2781604 C197.188394,17.2781604 196.726412,16.8169823 196.726412,16.1240099 C196.726412,15.4318411 197.18759,14.9698595 197.880563,14.9698595 L202.495434,14.9698595 Z" id="Combined-Shape"></path>
            </g>
        </g>
    </g>
</svg>