<?xml version="1.0" encoding="UTF-8"?>
<svg width="13px" height="12px" viewBox="0 0 13 12" version="1.1" xmlns="http://www.w3.org/2000/svg" xmlns:xlink="http://www.w3.org/1999/xlink">
    <!-- Generator: Sketch 57.1 (83088) - https://sketch.com -->
    <title>favorito</title>
    <desc>Created with Sketch.</desc>
    <g id="ui-app-stroogo" stroke="none" stroke-width="1" fill="none" fill-rule="evenodd">
        <g id="categoria" transform="translate(-319.000000, -69.000000)" fill-rule="nonzero" stroke="#4D4D4D">
            <g id="filtro-select" transform="translate(223.000000, 57.000000)">
                <path d="M104.577334,13.0085912 C103.767073,13.0048613 102.984114,13.3012086 102.379387,13.8405063 C101.071658,12.6719042 99.0788114,12.7284089 97.839398,13.9692322 C96.5425326,15.2660976 96.8979698,17.5505019 97.8931939,19.0414167 C98.888418,20.5323316 101.303469,22.3594708 102.02395,22.8839808 C102.233534,23.0386731 102.519477,23.0386731 102.729061,22.8839808 C103.449541,22.353707 105.878042,20.5111975 106.859817,19.0414167 C107.841592,17.571636 108.204715,15.2660976 106.913613,13.9692322 C106.294116,13.3502836 105.453038,13.0044457 104.577334,13.0085912 Z M106.540884,18.8300757 C105.591771,20.2518244 103.209381,22.0616721 102.506192,22.5804182 C102.432259,22.6361363 102.330359,22.6361363 102.256425,22.5804182 C101.549394,22.0597508 99.1670039,20.2518244 98.2217331,18.8281544 C97.3129667,17.4640442 96.9671359,15.3929022 98.1199051,14.240133 C99.2613361,13.1012781 101.109231,13.1012781 102.250662,14.240133 C102.325599,14.3146256 102.446625,14.3146256 102.521562,14.240133 C103.662993,13.1012781 105.510888,13.1012781 106.652319,14.240133 C107.795481,15.3929022 107.449651,17.4659655 106.540884,18.8300757 Z" id="favorito"></path>
            </g>
        </g>
    </g>
</svg>