<?xml version="1.0" encoding="UTF-8"?>
<svg width="13px" height="12px" viewBox="0 0 13 12" version="1.1" xmlns="http://www.w3.org/2000/svg" xmlns:xlink="http://www.w3.org/1999/xlink">
    <!-- Generator: Sketch 57.1 (83088) - https://sketch.com -->
    <title>favorito</title>
    <desc>Created with Sketch.</desc>
    <g id="ui-app-stroogo" stroke="none" stroke-width="1" fill="none" fill-rule="evenodd">
        <g id="categoria" transform="translate(-334.000000, -119.000000)" fill-rule="nonzero" stroke="#E02020">
            <g id="grade-cards-chefs" transform="translate(5.000000, 111.000000)">
                <g id="card-chef-big">
                    <path d="M337.577334,9.00859118 C336.767073,9.00486128 335.984114,9.30120864 335.379387,9.8405063 C334.071658,8.67190417 332.078811,8.72840891 330.839398,9.9692322 C329.542533,11.2660976 329.89797,13.5505019 330.893194,15.0414167 C331.888418,16.5323316 334.303469,18.3594708 335.02395,18.8839808 C335.233534,19.0386731 335.519477,19.0386731 335.729061,18.8839808 C336.449541,18.353707 338.878042,16.5111975 339.859817,15.0414167 C340.841592,13.571636 341.204715,11.2660976 339.913613,9.9692322 C339.294116,9.35028358 338.453038,9.00444571 337.577334,9.00859118 Z M339.540884,14.8300757 C338.591771,16.2518244 336.209381,18.0616721 335.506192,18.5804182 C335.432259,18.6361363 335.330359,18.6361363 335.256425,18.5804182 C334.549394,18.0597508 332.167004,16.2518244 331.221733,14.8281544 C330.312967,13.4640442 329.967136,11.3929022 331.119905,10.240133 C332.261336,9.1012781 334.109231,9.1012781 335.250662,10.240133 C335.325599,10.3146256 335.446625,10.3146256 335.521562,10.240133 C336.662993,9.1012781 338.510888,9.1012781 339.652319,10.240133 C340.795481,11.3929022 340.449651,13.4659655 339.540884,14.8300757 Z" id="favorito"></path>
                </g>
            </g>
        </g>
    </g>
</svg>