<?xml version="1.0" encoding="UTF-8"?>
<svg width="20px" height="20px" viewBox="0 0 20 20" version="1.1" xmlns="http://www.w3.org/2000/svg" xmlns:xlink="http://www.w3.org/1999/xlink">
    <!-- Generator: Sketch 57.1 (83088) - https://sketch.com -->
    <title>Path</title>
    <desc>Created with Sketch.</desc>
    <g id="Symbols" stroke="none" stroke-width="1" fill="none" fill-rule="evenodd">
        <g id="close-X-1" transform="translate(-2.000000, -3.000000)" fill="#6D7278" fill-rule="nonzero">
            <path d="M21.4599503,19.2681754 L15.1873454,12.9993441 L21.4551475,6.72673915 C22.1779702,6.0063179 22.1779702,4.84767469 21.4575596,4.12485203 L20.8751642,3.54138628 C20.5329092,3.19082244 20.0647246,3 19.5723682,3 L19.5699561,3 C19.0776133,3 18.615295,3.19323756 18.2695614,3.54031594 L11.9993578,9.81504785 L5.72675288,3.54724571 C5.00742941,2.82682445 3.85008981,2.82332526 3.12726715,3.54376154 L2.54380141,4.12133356 C2.19189964,4.46599681 2,4.93424318 2,5.42522742 C2,5.91864051 2.19323756,6.38338769 2.54031594,6.72912128 L8.81504785,12.9993248 L2.54621653,19.2719298 C1.82339388,19.992351 1.82339388,21.1509943 2.54380443,21.8762183 L3.12619983,22.4586137 C3.47086308,22.8091776 3.93773722,23 4.43009369,23 C4.92002131,23 5.38825396,22.8043473 5.73288977,22.4596841 L12.0017211,16.1859813 L18.2719246,22.4524112 C18.6273119,22.8115515 19.1003405,22.9927272 19.5747207,22.9927272 C20.0442844,22.9927272 20.5149048,22.8136922 20.8738118,22.4558967 L21.4562072,21.8748392 C21.8091793,21.5325842 22.0000309,21.0643996 22.0000309,20.5720431 C22.0024207,20.0797004 21.8091861,19.6149807 21.4621078,19.2681493 L21.4599503,19.2681754 Z" id="Path"></path>
        </g>
    </g>
</svg>