<?xml version="1.0" encoding="UTF-8"?>
<svg width="14px" height="16px" viewBox="0 0 14 16" version="1.1" xmlns="http://www.w3.org/2000/svg" xmlns:xlink="http://www.w3.org/1999/xlink">
    <!-- Generator: Sketch 57.1 (83088) - https://sketch.com -->
    <title>Shape</title>
    <desc>Created with Sketch.</desc>
    <g id="ui-app-stroogo" stroke="none" stroke-width="1" fill="none" fill-rule="evenodd">
        <g id="busca" transform="translate(-110.000000, -136.000000)" fill="#000000" fill-rule="nonzero">
            <g id="filtro-select" transform="translate(10.000000, 126.000000)">
                <path d="M107.866984,26 C107.795132,26 107.723001,25.9832503 107.65647,25.950336 L105.14656,24.6953809 C104.98717,24.6156841 104.886465,24.4527945 104.886465,24.2743614 L104.886465,19.4054941 L100.363249,13.0733492 C99.9381774,12.4782136 99.8819912,11.7045159 100.216745,11.0540906 C100.551499,10.4036653 101.213861,10 101.945105,10 L111.279103,10 C112.010383,10 112.672426,10.4040955 113.007176,11.0540906 C113.341923,11.7045517 113.285758,12.4781061 112.860672,13.0733492 L108.337456,19.4054941 L108.337456,25.5296751 C108.337456,25.6928479 108.252718,25.8443927 108.114335,25.9299699 C108.038841,25.9764714 107.952844,26 107.866848,26 L107.866984,26 Z M105.827682,23.9834557 L107.396376,24.7678026 L107.396376,19.2546055 C107.396376,19.1567011 107.427189,19.0610412 107.483914,18.9810647 L112.094619,12.5262928 C112.317316,12.214795 112.34561,11.8254183 112.170254,11.484931 C111.994897,11.14458 111.661961,10.9412127 111.278913,10.9412127 L101.945274,10.9412127 C101.56219,10.9412127 101.228981,11.1445836 101.053933,11.484931 C100.878576,11.825282 100.907146,12.2146695 101.129567,12.5262928 L105.740272,18.9810647 C105.797419,19.0610412 105.827811,19.1567011 105.827811,19.2546055 L105.827682,23.9834557 Z" id="Shape"></path>
            </g>
        </g>
    </g>
</svg>