<?xml version="1.0" encoding="UTF-8"?>
<svg width="15px" height="16px" viewBox="0 0 15 16" version="1.1" xmlns="http://www.w3.org/2000/svg" xmlns:xlink="http://www.w3.org/1999/xlink">
    <!-- Generator: Sketch 57.1 (83088) - https://sketch.com -->
    <title>ico-trash</title>
    <desc>Created with Sketch.</desc>
    <g id="Symbols" stroke="none" stroke-width="1" fill="none" fill-rule="evenodd">
        <g id="bt-excluir1" transform="translate(-8.000000, -8.000000)" fill="#4D4D4D" fill-rule="nonzero">
            <path d="M21.6472344,9.88219634 C21.9072173,9.88219634 22.1178843,10.0930207 22.1178843,10.3528463 C22.1178843,10.5838023 21.9514313,10.7760414 21.7318475,10.8159099 L21.6472344,10.8234962 L20.235446,10.8234962 L20.235446,21.6470731 C20.235446,22.2712046 19.9875763,22.8696012 19.5462512,23.3108052 C19.1492039,23.7080159 18.6247652,23.9484951 18.0688561,23.9926189 L17.882519,24 L12.2353653,24 C11.6112338,24 11.0128372,23.7521303 10.5716331,23.3108052 C10.1744224,22.9137579 9.93394323,22.3893192 9.88981949,21.8334101 L9.88243836,21.6470731 L9.88243836,10.8234962 L8.47064993,10.8234962 C8.21066707,10.8234962 8,10.6126718 8,10.3528463 C8,10.1218902 8.16645299,9.92965116 8.38603682,9.88978267 L8.47064993,9.88219634 L21.6472344,9.88219634 Z M19.2941461,10.8236575 L10.8234155,10.8236575 L10.8234155,21.6472344 C10.8234155,22.0216004 10.9721575,22.3807029 11.2368678,22.6455705 C11.4686129,22.8771921 11.7725251,23.0200253 12.0956835,23.0521146 L12.235204,23.0590228 L17.8823577,23.0590228 C18.2567236,23.0590228 18.6158261,22.9102808 18.8806938,22.6455705 C19.1123153,22.4138254 19.2551486,22.1099133 19.2872379,21.7867549 L19.2941461,21.6472344 L19.2941461,10.8236575 Z M13.6470731,13.6471537 C13.8780291,13.6471537 14.0702682,13.8136035 14.1101367,14.0330762 L14.117723,14.1176423 L14.117723,19.764796 C14.117723,19.8895901 14.0680885,20.009338 13.9798518,20.0975747 C13.891615,20.1858115 13.7718671,20.235446 13.6470731,20.235446 C13.522279,20.235446 13.4025311,20.1858115 13.3142944,20.0975747 C13.2481168,20.0313972 13.203653,19.9474946 13.1855572,19.8570319 L13.1764231,19.764796 L13.1764231,14.1176423 C13.1764231,13.8578208 13.3872475,13.6471537 13.6470731,13.6471537 Z M16.4706499,13.6471537 C16.7304755,13.6471537 16.9412999,13.8578168 16.9412999,14.1176423 L16.9412999,14.1176423 L16.9412999,19.764796 C16.9412999,19.8895901 16.8916654,20.009338 16.8034286,20.0975747 C16.7151919,20.1858115 16.595444,20.235446 16.4706499,20.235446 C16.3458559,20.235446 16.226108,20.1858115 16.1378712,20.0975747 C16.0496344,20.009338 16,19.8895901 16,19.764796 L16,19.764796 L16,14.1176423 C16,13.8578208 16.2108244,13.6471537 16.4706499,13.6471537 Z M16.9412192,8 C17.2010407,8 17.4117078,8.21066304 17.4117078,8.47048858 C17.4117078,8.70158445 17.245258,8.89371477 17.0257853,8.93355735 L16.9412192,8.94113851 L13.1763425,8.94113851 C12.9165209,8.94113851 12.7058539,8.73047144 12.7058539,8.47048858 C12.7058539,8.23953613 12.8723037,8.04742175 13.0917763,8.00758093 L13.1763425,8 L16.9412192,8 Z" id="ico-trash"></path>
        </g>
    </g>
</svg>