<?xml version="1.0" encoding="UTF-8"?>
<svg width="21px" height="21px" viewBox="0 0 21 21" version="1.1" xmlns="http://www.w3.org/2000/svg" xmlns:xlink="http://www.w3.org/1999/xlink">
    <!-- Generator: Sketch 57.1 (83088) - https://sketch.com -->
    <title>ico pedidos</title>
    <desc>Created with Sketch.</desc>
    <g id="Symbols" stroke="none" stroke-width="1" fill="none" fill-rule="evenodd">
        <g id="menu-footer-cliente" transform="translate(-212.000000, -31.000000)" fill="#4D4D4D" fill-rule="nonzero">
            <g id="links" transform="translate(39.000000, 31.000000)">
                <path d="M190.5,0 C192.367759,0.00193944588 193.893198,1.46518403 193.994631,3.30804898 L194,3.5 L194,17.5 C193.998061,19.3677595 192.534816,20.8931981 190.691951,20.994631 L190.5,21 L176.5,21 C174.632241,20.9980606 173.106802,19.534816 173.005369,17.691951 L173,17.5 L173,3.5 C173.001939,1.63224053 174.465184,0.106801944 176.308049,0.00536902228 L176.5,0 L190.5,0 Z M190.5,1.4 L176.5,1.4 C175.391148,1.40125457 174.483417,2.2608292 174.405432,3.35009858 L174.4,3.5 L174.4,17.5 C174.401255,18.6088519 175.260829,19.5165829 176.350099,19.5945678 L176.5,19.6 L190.5,19.6 C191.608852,19.5987454 192.516583,18.7391708 192.594568,17.6499014 L192.6,17.5 L192.6,3.5 C192.598688,2.34074574 191.659254,1.40131159 190.5,1.4 Z M186.3,15.4 C186.686599,15.4 187,15.7134007 187,16.1 C187,16.4865993 186.686599,16.8 186.3,16.8 L186.3,16.8 L180.7,16.8 C180.313401,16.8 180,16.4865993 180,16.1 C180,15.7134007 180.313401,15.4 180.7,15.4 L180.7,15.4 Z M180.7,9.8 L186.3,9.8 C186.686599,9.8 187,10.1134007 187,10.5 C187,10.8543827 186.736656,11.1472582 186.394986,11.1936098 L186.3,11.2 L180.7,11.2 C180.313401,11.2 180,10.8865993 180,10.5 C180,10.1456173 180.263344,9.85274177 180.605014,9.80639017 L180.7,9.8 L186.3,9.8 Z M186.3,4.2 C186.686599,4.2 187,4.51340068 187,4.9 C187,5.25438271 186.736656,5.54725823 186.394986,5.59360983 L186.3,5.6 L180.7,5.6 C180.313401,5.6 180,5.28659932 180,4.9 C180,4.54561729 180.263344,4.25274177 180.605014,4.20639017 L180.7,4.2 L186.3,4.2 Z" id="ico-pedidos"></path>
            </g>
        </g>
    </g>
</svg>