<?xml version="1.0" encoding="UTF-8"?>
<svg width="17px" height="22px" viewBox="0 0 17 22" version="1.1" xmlns="http://www.w3.org/2000/svg" xmlns:xlink="http://www.w3.org/1999/xlink">
    <!-- Generator: Sketch 57.1 (83088) - https://sketch.com -->
    <title>sacola</title>
    <desc>Created with Sketch.</desc>
    <g id="ui-app-stroogo" stroke="none" stroke-width="1" fill="none" fill-rule="evenodd">
        <g id="pagina-do-chef---sacola-ativa" transform="translate(-29.000000, -683.000000)" fill="#FFFFFF" fill-rule="nonzero">
            <g id="footer-cta-adicionar" transform="translate(0.000000, 633.000000)">
                <g id="br-cta-vermelho-carrinho" transform="translate(5.000000, 36.000000)">
                    <g id="sacola-qtd" transform="translate(24.000000, 13.000000)">
                        <path d="M8.0858209,1 C10.5086674,1 12.4776119,2.97035998 12.4776119,5.39494834 L12.477,6.828 L13.0207567,6.82835821 C14.2407156,6.82835821 15.2621703,7.67330119 15.3871855,8.79735874 L16.1588197,20.5971711 C16.2249262,21.1556102 16.0338212,21.7360073 15.6224342,22.1916257 C15.1667186,22.6985495 14.498137,22.9924427 13.78521,22.9924427 L13.785084,23 L2.37959599,23 C1.666669,23 0.998087356,22.7061068 0.542371761,22.199183 C0.130799939,21.7435645 -0.0529308826,21.1631674 0.0131671958,20.5679917 L0.777410481,8.83409539 C0.909623435,7.68048058 1.92388039,6.82835821 3.14383927,6.82835821 L3.694,6.828 L3.69402985,5.39494834 C3.69402985,2.97035998 5.66297434,1 8.0858209,1 Z M13.0282316,8.30550746 L12.477,8.305 L12.4776119,9.78989667 C12.4776119,10.1927669 12.1482276,10.5223881 11.7456468,10.5223881 C11.3430659,10.5223881 11.0136816,10.1927669 11.0136816,9.78989667 L11.013,8.305 L5.157,8.305 L5.1579602,9.78989667 C5.1579602,10.1927669 4.82857587,10.5223881 4.42599502,10.5223881 C4.02341418,10.5223881 3.69402985,10.1927669 3.69402985,9.78989667 L3.694,8.305 L3.14388127,8.30533953 C2.68098475,8.30533953 2.28397634,8.59923274 2.24005093,8.96659925 L1.47580765,20.7004956 C1.44644482,20.9576521 1.54929662,21.1193606 1.63755057,21.222198 C1.8138905,21.4206431 2.07848439,21.530853 2.37983115,21.530853 L13.7924581,21.530853 C14.086414,21.530853 14.3584071,21.4206431 14.5347387,21.222198 C14.6229926,21.119369 14.7258436,20.9576605 14.7036961,20.7372322 L13.9320619,8.93741985 C13.8953174,8.59940907 13.498519,8.30550746 13.0282316,8.30550746 Z M8.0858209,2.46498278 C6.46813603,2.46498278 5.1579602,3.77610051 5.1579602,5.39494834 L5.157,6.828 L11.013,6.828 L11.0136816,5.39494834 C11.0136816,3.77610051 9.70350576,2.46498278 8.0858209,2.46498278 Z" id="sacola"></path>
                    </g>
                </g>
            </g>
        </g>
    </g>
</svg>