<?xml version="1.0" encoding="UTF-8"?>
<svg width="39px" height="40px" viewBox="0 0 39 40" version="1.1" xmlns="http://www.w3.org/2000/svg" xmlns:xlink="http://www.w3.org/1999/xlink">
    <!-- Generator: Sketch 57.1 (83088) - https://sketch.com -->
    <title>ico-retirada</title>
    <desc>Created with Sketch.</desc>
    <g id="ui-app-stroogo" stroke="none" stroke-width="1" fill="none" fill-rule="evenodd">
        <g id="sacola---entrega/retirada" transform="translate(-16.000000, -182.000000)">
            <g id="dados-entrega" transform="translate(5.000000, 139.000000)">
                <g id="ico-retirada" transform="translate(11.000000, 43.000000)">
                    <path d="M16.5217391,40.000009 L1.87826087,40.000009 C1.39186517,40.0015592 0.927043326,39.7993576 0.596580482,39.4424577 C0.266117638,39.0855578 0.10021608,38.6065782 0.139130435,38.1217391 L0.965217391,27.826087 L13.0434783,27.826087 C16.5217391,40.0695652 15.8521739,37.6347826 16.5217391,40.000009 Z" id="Path" fill="#6FABE6" fill-rule="nonzero"></path>
                    <path d="M22.6086957,6.95651265 L22.6086957,22.6086957 L1.37391304,22.6086957 L2.47826087,8.55652174 C2.55095135,7.65074446 3.30870659,6.95360964 4.2173913,6.95651265 L5.2173913,6.95651265 C5.2173913,10.8 12.173913,19.1304348 12.173913,19.1304348 C12.173913,19.1304348 19.1304348,10.8 19.1304348,6.95651265 L22.6086957,6.95651265 Z" id="Path" fill="#9DCC6B" fill-rule="nonzero"></path>
                    <path d="M36.8869565,22.6086957 L27.826087,22.6086957 L27.826087,6.95651265 L34.0434783,6.95651265 C34.952163,6.95360964 35.7099182,7.65074446 35.7826087,8.55652174 L36.8869565,22.6086957 Z" id="Path" fill="#9DCC6B" fill-rule="nonzero"></path>
                    <path d="M38.1217391,38.2608696 C38.1217391,39.2213648 37.3431039,40 36.3826087,40 L21.7391304,40 L18.2608696,27.826087 L37.2956522,27.826087 C38.373913,41.426087 38.1217391,37.4347826 38.1217391,38.2608696 Z" id="Path" fill="#6FABE6" fill-rule="nonzero"></path>
                    <path d="M16.5217391,40.000009 L1.87826087,40.000009 C1.39186517,40.0015592 0.927043326,39.7993576 0.596580482,39.4424577 C0.266117638,39.0855578 0.10021608,38.6065782 0.139130435,38.1217391 L0.965217391,27.826087 L13.0434783,27.826087 C16.5217391,40.0695652 15.8521739,37.6347826 16.5217391,40.000009 Z" id="Path" fill="#6FABE6" fill-rule="nonzero"></path>
                    <path d="M22.6086957,6.95651265 L22.6086957,22.6086957 L1.37391304,22.6086957 L2.47826087,8.55652174 C2.55095135,7.65074446 3.30870659,6.95360964 4.2173913,6.95651265 L5.2173913,6.95651265 C5.2173913,10.8 12.173913,19.1304348 12.173913,19.1304348 C12.173913,19.1304348 19.1304348,10.8 19.1304348,6.95651265 L22.6086957,6.95651265 Z" id="Path" fill="#9DCC6B" fill-rule="nonzero"></path>
                    <path d="M36.8869565,22.6086957 L27.826087,22.6086957 L27.826087,6.95651265 L34.0434783,6.95651265 C34.952163,6.95360964 35.7099182,7.65074446 35.7826087,8.55652174 L36.8869565,22.6086957 Z" id="Path" fill="#9DCC6B" fill-rule="nonzero"></path>
                    <path d="M38.1217391,38.2608696 C38.1217391,39.2213648 37.3431039,40 36.3826087,40 L21.7391304,40 L18.2608696,27.826087 L37.2956522,27.826087 C38.373913,41.426087 38.1217391,37.4347826 38.1217391,38.2608696 Z" id="Path" fill="#6FABE6" fill-rule="nonzero"></path>
                    <path d="M21.7391304,40 L16.5217391,40 L13.0434783,27.826087 L0.965217391,27.826087 L1.37391304,22.6086957 L22.6086957,22.6086957 L22.6086957,6.95652174 L27.826087,6.95652174 L27.826087,22.6086957 L36.8869565,22.6086957 L37.2956522,27.826087 L18.2608696,27.826087 C21.7391304,40.0695652 21.0695652,37.6347826 21.7391304,40 Z" id="Path" fill="#FFCC66" fill-rule="nonzero"></path>
                    <path d="M18.2608696,27.826087 L21.2434783,38.2608696 L16.026087,38.2608696 L13.0434783,27.826087 L3.47826087,27.826087 C3.65217391,25.6347826 3.56521739,26.7913043 3.88695652,22.6086957 L22.6086957,22.6086957 L22.6086957,6.95652174 L27.826087,6.95652174 L27.826087,22.6086957 L36.8869565,22.6086957 L37.2956522,27.826087 L18.2608696,27.826087 Z" id="Path" fill="#FFDE76" fill-rule="nonzero"></path>
                    <path d="M22.6086957,6.95652174 L22.6086957,22.6086957 L3.84347826,22.6086957 C3.9714428,20.993905 4.39075428,19.420647 4,14.5 C3.88875858,13.0991714 3.38875858,10.2658381 2.5,6 L22.6086957,6.95652174 Z" id="Path" fill="#B5E08C" fill-rule="nonzero"></path>
                    <path d="M16.026087,38.2608785 L4.48695652,38.2608785 C4.00056082,38.2624287 3.53573898,38.0602271 3.20527613,37.7033273 C2.87481329,37.3464274 2.70891173,36.8674477 2.74782609,36.3826087 L3.47826087,27.826087 L13.0434783,27.826087 L16.026087,38.2608785 Z" id="Path" fill="#82BCF4" fill-rule="nonzero"></path>
                    <path d="M38.1217391,38.2608696 L21.2434783,38.2608696 L18.2608696,27.826087 L37.2956522,27.826087 C38.373913,41.426087 38.1217391,37.4347826 38.1217391,38.2608696 Z" id="Path" fill="#82BCF4" fill-rule="nonzero"></path>
                    <path d="M36.8869565,22.6086957 L27.826087,22.6086957 L27.826087,6.95651265 L34.0434783,6.95651265 C34.952163,6.95360964 35.7099182,7.65074446 35.7826087,8.55652174 L36.8869565,22.6086957 Z" id="Path" fill="#B5E08C" fill-rule="nonzero"></path>
                    <path d="M14.3236,4.82757 C15.447,5.29784 16.7438,6.32507 18.3,8.4 C18.6314,8.8418 18.5418,9.4687 18.1,9.8 C17.6582,10.1314 17.0314,10.0418 16.7,9.6 C15.5434203,8.05792306 14.6481438,7.2873389 13.9942255,6.89797539 L14,7 C14,8.657 14.237,10.0546 14.5786,11.1364 C14.9262,12.237 15.3613,12.9471 15.7071,13.2929 C15.9448,13.5306 16.0472,13.8718 15.9796,14.2011 C15.912,14.5303 15.6835,14.8036 15.3714,14.9285 C15.2427783,14.9799465 15.1196358,15.0315749 15.0016703,15.0833579 C15.6357046,16.5687231 16.2980082,17.7307025 16.8,18.4 C17.1314,18.8418 17.0418,19.4686 16.6,19.8 C16.1582,20.1314 15.5314,20.0418 15.2,19.6 C14.613198,18.8175737 13.9194721,17.5994314 13.268029,16.1112834 C13.1741592,16.1887908 13.0876073,16.2666682 13.0071,16.3444 C12.5185,16.8161 12.2037,17.3286 11.8944,17.9472 C11.6474,18.4412 11.0468,18.6414 10.55279,18.3944 C10.05881,18.1474 9.85858,17.5468 10.10557,17.0528 C10.46293,16.3381 10.89815,15.6005 11.6179,14.9056 C11.8801757,14.6524014 12.1736701,14.4110345 12.5058879,14.1805099 C12.5028405,14.1688502 12.4984674,14.1564306 12.4941,14.144 C11.7901645,12.1405751 11.215135,9.80011978 11.0487004,7.38877314 C10.885273,7.57780127 10.7379929,7.78340462 10.60862,8.0001 C10.19098,8.6997 10,9.4493 10,10 C10,10.5523 9.55228,11 9,11 C8.44772,11 8,10.5523 8,10 C8,9.0507 8.30902,7.95034 8.89138,6.97489 C9.47872,5.99109 10.38382,5.06944 11.6286,4.57152 C11.7467,4.52428 11.8728,4.5 12,4.5 C12.0398,4.5 12.0936,4.49682 12.1599,4.49289 C12.5452,4.47006 13.355,4.4221 14.3236,4.82757 Z M12,-2.30926389e-14 C13.1046,-2.30926389e-14 14,0.89543 14,2 C14,3.10457 13.1046,4 12,4 C10.89543,4 10,3.10457 10,2 C10,0.89543 10.89543,-2.30926389e-14 12,-2.30926389e-14 Z" id="Combined-Shape" fill="#000000"></path>
                </g>
            </g>
        </g>
    </g>
</svg>