<?xml version="1.0" encoding="UTF-8"?>
<svg width="15px" height="16px" viewBox="0 0 15 16" version="1.1" xmlns="http://www.w3.org/2000/svg" xmlns:xlink="http://www.w3.org/1999/xlink">
    <!-- Generator: Sketch 57.1 (83088) - https://sketch.com -->
    <title>share</title>
    <desc>Created with Sketch.</desc>
    <g id="ui-app-stroogo" stroke="none" stroke-width="1" fill="none" fill-rule="evenodd">
        <g id="categoria" transform="translate(-330.000000, -17.000000)" fill="#E02020" fill-rule="nonzero">
            <g id="header" transform="translate(5.000000, 14.000000)">
                <path d="M327.224405,8.77559526 C327.848827,8.77559526 328.434106,9.04880662 328.863444,9.47804488 L335.029093,5.88779763 C334.951079,5.69271115 334.912017,5.45857366 334.912017,5.22440474 C334.912017,4.01470341 335.926634,3 337.136421,3 C338.346123,3 339.360826,4.0146177 339.360826,5.22440474 C339.360826,6.43410606 338.346208,7.44880948 337.136421,7.44880948 C336.512,7.44880948 335.92672,7.17559812 335.497382,6.74635986 L329.331734,10.3366071 C329.409747,10.5316936 329.448809,10.7658311 329.448809,11 C329.448809,11.2341689 329.409747,11.4683093 329.331734,11.6633929 L335.497382,15.2536401 C335.926606,14.8244162 336.512,14.5511905 337.136421,14.5511905 C338.346123,14.5511905 339.360826,15.5658082 339.360826,16.7755953 C339.360826,18.0243533 338.346208,19 337.136421,19 C335.92672,19 334.912017,18.024439 334.912017,16.7755953 C334.912017,16.5414463 334.951079,16.3463713 335.029093,16.1122024 L328.863444,12.5219551 C328.43422,12.9511791 327.848827,13.2244047 327.224405,13.2244047 C326.014703,13.2244047 325,12.2488438 325,11 C325,9.79029868 326.014618,8.77559526 327.224405,8.77559526 Z" id="share"></path>
            </g>
        </g>
    </g>
</svg>