<?xml version="1.0" encoding="UTF-8"?>
<svg width="34px" height="30px" viewBox="0 0 34 30" version="1.1" xmlns="http://www.w3.org/2000/svg" xmlns:xlink="http://www.w3.org/1999/xlink">
    <!-- Generator: Sketch 57.1 (83088) - https://sketch.com -->
    <title>ico-delivery</title>
    <desc>Created with Sketch.</desc>
    <g id="ui-app-stroogo" stroke="none" stroke-width="1" fill="none" fill-rule="evenodd">
        <g id="app-chef---cozinha-(detalhe-do-pedido---aceito)-" transform="translate(-20.000000, -467.000000)" fill="#49751B" fill-rule="nonzero">
            <g id="modal-conclusão">
                <g id="card-pedido" transform="translate(5.000000, 206.000000)">
                    <path d="M38.6909723,287.689685 C38.6917767,288.334373 38.948405,288.952394 39.4043054,289.408295 C39.8602192,289.864215 40.4782133,290.120836 41.1229146,290.12136 C41.7678707,290.121091 42.3860995,289.864731 42.8422613,289.408831 C43.2528371,288.998267 43.5017571,288.456418 43.5480081,287.882167 L43.5558625,287.689685 L44.4946387,287.689685 C44.4799577,288.574028 44.1183104,289.41721 43.4877537,290.037296 C42.8568752,290.657415 42.0079277,291.005166 41.1233839,291.005166 C40.2387731,291.005166 39.389839,290.657382 38.7592823,290.037296 C38.1810569,289.468884 37.8290013,288.712953 37.7630457,287.909794 L37.7521962,287.689685 L38.6909723,287.689685 Z M18.5763999,287.487638 C18.5774054,288.132594 18.8340404,288.750615 19.2902022,289.206515 C19.746116,289.662436 20.364385,289.918795 21.0093478,289.91958 C21.6539687,289.918776 22.2719896,289.662416 22.72789,289.206515 C23.1382244,288.796193 23.3871203,288.25458 23.4333689,287.680183 L23.4412231,287.487638 L24.3799992,287.487638 C24.3653853,288.372182 24.0037379,289.215364 23.3729131,289.83545 C22.7423028,290.45583 21.8933552,290.80332 21.0088115,290.80332 C20.1242006,290.80332 19.2752665,290.455797 18.6444417,289.83545 C18.066456,289.267038 17.7144209,288.511163 17.6482651,287.707807 L17.6373556,287.487638 L18.5763999,287.487638 Z M38.9996268,270.770401 L39.033407,272.020293 C39.0485908,272.537411 38.9092827,273.047543 38.6332809,273.485371 C38.391967,273.868446 38.0554767,274.180971 37.6581295,274.393457 L37.4842119,274.478312 L40.5505857,280.436967 C40.5932677,280.516049 40.6563823,280.582301 40.7336282,280.628389 C40.7851255,280.658941 40.8416311,280.679832 40.9001915,280.690287 L40.9892041,280.698046 L41.590962,280.691499 C42.6727265,280.674472 43.7329724,280.992372 44.6269683,281.601718 C45.4462187,282.160052 46.0889901,282.938013 46.4830966,283.84395 L46.5843608,284.094127 L46.7557786,284.5484 C46.8503081,284.800081 46.8822553,285.070579 46.8492607,285.337417 C46.816004,285.603967 46.718855,285.85849 46.5656637,286.079241 C46.4127405,286.299991 46.208501,286.480415 45.9704552,286.60506 C45.7800185,286.704775 45.5724978,286.766281 45.3595489,286.78676 L45.1990016,286.794384 L37.1110739,286.794384 L35.579697,288.257384 C35.3097586,288.514007 34.9624586,288.671189 34.5947821,288.706125 L34.436125,288.713547 L27.7264633,288.713547 C27.3385662,288.712167 26.964886,288.576267 26.6678913,288.331977 L26.545485,288.220721 L24.9051742,286.564456 L16.663063,286.564456 C16.2220983,286.563933 15.7994546,286.388486 15.4875817,286.076874 C15.2149217,285.804003 15.046513,285.446302 15.0083202,285.0659 L15,284.901661 L15,284.54108 C15.0008044,282.833464 15.6790105,281.196103 16.8856637,279.988109 C18.0213372,278.851489 19.538122,278.182212 21.136064,278.105442 L21.4365559,278.098021 L25.5069321,278.098021 C26.103421,278.098021 26.6850077,278.284462 27.1702364,278.63169 C27.6015449,278.940355 27.9372692,279.362163 28.1415425,279.848605 L28.2119132,280.033955 L29.944399,285.115641 L32.8730802,285.121402 L33.2860371,284.708183 C34.2805874,283.713901 34.9360012,282.431296 35.1593661,281.042908 C35.366795,279.75369 35.1917097,278.434184 34.6593095,277.246536 L34.5301166,276.974878 L32.9094474,273.751639 L31.7328935,273.751639 C31.344311,273.741952 30.9745657,273.580381 30.7030151,273.302027 C30.4314645,273.023692 30.2793257,272.650018 30.2793257,272.261154 C30.2793257,271.872049 30.4314645,271.49863 30.7030151,271.220014 C30.9406336,270.976453 31.2533965,270.822508 31.5882078,270.781161 L31.7328935,270.770401 L38.9996268,270.770401 Z M38.088713,271.711256 L31.7367568,271.711256 C31.6631778,271.711256 31.5906378,271.725921 31.5228172,271.754463 C31.4552581,271.782746 31.3939815,271.82464 31.3426572,271.877012 C31.2913342,271.929388 31.2510086,271.991711 31.2240365,272.060055 C31.1970645,272.128398 31.1839717,272.201193 31.1855429,272.274779 C31.1878959,272.419591 31.2468141,272.557853 31.3497282,272.659715 C31.4322633,272.740996 31.5377602,272.794122 31.6508011,272.812255 L31.7367555,272.819187 L33.4914973,272.819187 L35.3695858,276.553309 C36.0910156,277.985406 36.342403,279.608421 36.0876115,281.191617 C35.8500438,282.669267 35.1832068,284.041803 34.1732696,285.139886 L33.9516343,285.370927 L33.2627024,286.0612 L29.2719654,286.05282 L27.9097881,282.07911 L16.5163011,282.07911 C16.1746067,282.757875 15.9785655,283.499723 15.9395863,284.256679 L15.9323537,284.541152 L15.9323537,284.897021 C15.9323537,285.088966 16.0090845,285.272793 16.1447257,285.408434 C16.2532387,285.517161 16.3927578,285.587675 16.5425008,285.611665 L16.6564002,285.620805 L25.2946959,285.620805 L27.2109951,287.555137 C27.3197226,287.664486 27.4597866,287.735797 27.6101405,287.760483 L27.7245065,287.770122 L34.4341682,287.770122 C34.5826938,287.769908 34.7265301,287.72428 34.8470364,287.640746 L34.9327506,287.571105 L36.7364289,285.859333 L45.2011005,285.859333 C45.3186755,285.860118 45.4344136,285.832097 45.5383735,285.777368 C45.6423334,285.722901 45.7313656,285.643557 45.7973548,285.546669 C45.8636007,285.450949 45.9054984,285.340185 45.9191148,285.22444 C45.9280181,285.147277 45.9243523,285.069417 45.9084273,284.993962 L45.8753843,284.882971 L45.7036039,284.423665 C45.3954381,283.604281 44.8455394,282.898073 44.1264412,282.398968 C43.4794941,281.94955 42.7231338,281.686985 41.940145,281.637248 L41.6782761,281.628587 L41.6067886,281.628587 L41.0032006,281.635134 L40.9843466,281.635134 C40.7232671,281.636179 40.4671684,281.564953 40.2440649,281.429574 C40.0655822,281.32127 39.9137466,281.175254 39.7987451,281.002393 L39.7195596,280.867883 L36.1085161,273.851195 L36.7280788,273.735712 C37.1206165,273.663702 37.4743871,273.45369 37.7255117,273.143909 C37.9407614,272.878158 38.0686671,272.554103 38.0940576,272.215793 L38.0981396,272.045654 L38.088713,271.711256 Z M25.5067451,279.036843 L21.4366907,279.036876 C20.6052396,279.036876 19.7843803,279.225999 19.0364565,279.589403 C18.3716353,279.912428 17.7799138,280.366076 17.2957887,280.922129 L17.1193528,281.135394 L27.595113,281.135394 L27.3235625,280.337528 C27.1944372,279.958069 26.949862,279.628653 26.6241059,279.395333 C26.2981084,279.162274 25.9073941,279.036843 25.5067451,279.036843 Z M41.802991,261.161826 C43.3856507,261.476628 44.8391985,262.253512 45.980156,263.394469 C47.1211136,264.53536 47.8983055,265.989243 48.2127995,267.571903 C48.527555,269.154294 48.3659975,270.794605 47.7482581,272.285358 C47.1305188,273.776111 46.0846857,275.050068 44.7428874,275.946142 C43.4906049,276.782728 42.0329435,277.255029 40.5322676,277.313859 L40.210095,277.320118 L40.210095,276.381342 C41.6380349,276.38161 43.0339985,275.95841 44.2212781,275.165505 C45.4085577,274.372331 46.3342417,273.245049 46.8807416,271.926043 C47.4275029,270.606769 47.5704779,269.1553 47.2918617,267.754845 C47.01346,266.35439 46.32607,265.067896 45.3163694,264.058397 C44.3066019,263.048629 43.0203767,262.360991 41.6199217,262.082636 C40.2191985,261.804288 38.7677288,261.947257 37.4487229,262.493757 C36.1295159,263.040504 35.0021667,263.96594 34.2092615,265.153488 C33.4727247,266.255962 33.0552411,267.538373 32.9997777,268.859023 L32.9934244,269.164403 L32.9934244,269.222798 L32.0545074,269.27634 L32.0545074,269.164524 C32.0542393,267.551229 32.5324091,265.973798 33.4284832,264.632 C34.3248253,263.289933 35.5987829,262.244355 37.0895358,261.626629 C38.5800205,261.008903 40.2203314,260.847071 41.802991,261.161826 Z M22.7580563,267.512329 C23.0735894,267.514465 23.382325,267.60245 23.6515159,267.766636 C23.9209749,267.930801 24.1404115,268.165166 24.2867919,268.444574 C24.4329123,268.723988 24.5004728,269.037959 24.4821424,269.352714 C24.463808,269.667449 24.3601095,269.971472 24.1823092,270.231761 C25.4149054,270.554876 26.5073957,271.274242 27.291385,272.278982 C28.0754146,273.283454 28.5074816,274.518128 28.5210986,275.792354 L28.5210986,275.792354 L29.4451938,275.792354 L29.4479423,276.731183 L15.9515271,276.731183 L15.9515271,275.792407 L16.8782367,275.792407 C16.8923143,274.504037 17.3340834,273.257028 18.1338263,272.247059 C18.9335692,271.237091 20.0462375,270.521431 21.2968664,270.212173 C21.1227262,269.94925 21.0232202,269.64392 21.0090796,269.328903 C20.9949417,269.013879 21.066952,268.700954 21.2169993,268.423645 C21.3670467,268.146336 21.5898887,267.914846 21.8611778,267.754328 C22.1327351,267.593803 22.4427779,267.510272 22.7580563,267.512329 Z M22.564422,270.982925 C21.3008751,271.017516 20.1047467,271.537315 19.2206722,272.433658 C18.3369194,273.330067 17.8338865,274.533569 17.8168654,275.792309 L17.8168654,275.792309 L27.5887446,275.792309 C27.5722537,274.544831 27.0781292,273.35125 26.2084675,272.456986 C25.3386047,271.562729 24.1591683,271.035865 22.9126956,270.984802 C22.8600654,270.993182 22.8066442,270.993182 22.7521772,270.993182 C22.6893307,270.993444 22.6267449,270.99004 22.564422,270.982925 L22.564422,270.982925 Z M22.8597972,268.463119 C22.7081813,268.441644 22.5536828,268.464167 22.4143747,268.528061 C22.275328,268.591953 22.1572302,268.694337 22.074742,268.823174 C21.9919951,268.952273 21.9482642,269.10232 21.9485144,269.255243 C21.9495601,269.444302 22.0176489,269.627083 22.1404594,269.770581 C22.2632698,269.91434 22.4332202,270.009919 22.6196615,270.040294 L22.6196615,270.040294 L22.7013654,270.040294 C22.7558323,270.040294 22.8095163,270.045008 22.8629362,270.045008 C23.0145589,270.022752 23.1564814,269.957546 23.2719648,269.856991 C23.3874482,269.756705 23.4717651,269.624985 23.5147099,269.477821 C23.5573929,269.330917 23.5571315,269.174589 23.5136625,269.027685 C23.4701961,268.881043 23.3856165,268.749592 23.2696102,268.64956 C23.1538653,268.549536 23.0114132,268.484854 22.8597972,268.463119 Z M39.6313573,264.152844 L40.5703798,264.167776 L40.4988923,268.692457 L43.9373845,268.689838 L43.9384319,269.628615 L39.5449408,269.633328 L39.6313573,264.152844 Z" id="ico-delivery"></path>
                </g>
            </g>
        </g>
    </g>
</svg>