<?xml version="1.0" encoding="UTF-8"?>
<svg width="10px" height="10px" viewBox="0 0 10 10" version="1.1" xmlns="http://www.w3.org/2000/svg" xmlns:xlink="http://www.w3.org/1999/xlink">
    <!-- Generator: Sketch 57.1 (83088) - https://sketch.com -->
    <title>Shape</title>
    <desc>Created with Sketch.</desc>
    <g id="ui-app-stroogo" stroke="none" stroke-width="1" fill="none" fill-rule="evenodd">
        <g id="app-admin-usuários" transform="translate(-262.000000, -216.000000)" fill="#E02020" fill-rule="nonzero">
            <g id="card-user" transform="translate(5.000000, 152.000000)">
                <g id="bt" transform="translate(245.000000, 56.000000)">
                    <path d="M17.0006127,18 C18.1573426,17.999782 19.27833,17.5985751 20.1725028,16.8645314 C21.066564,16.1305715 21.6785646,15.1093334 21.9040679,13.9747298 C22.1295712,12.8401262 21.9546402,11.6624699 21.4092553,10.6424037 C20.8637449,9.62225373 19.9814584,8.82289167 18.9126754,8.38028354 C17.8438924,7.93778702 16.6547964,7.87958362 15.5479831,8.21548923 C14.4410582,8.55140043 13.4848873,9.26072299 12.842362,10.2226974 C12.1997529,11.1845603 11.9105774,12.3395323 12.0241661,13.4905701 C12.1376265,14.6417474 12.6468253,15.7179244 13.4649375,16.5357855 C13.9281651,17.0014964 14.479228,17.3707783 15.0861784,17.6221187 C15.6931567,17.8733448 16.3439411,18.0018359 17.0008359,17.9998828 L17.0006127,18 Z M19.6568474,15.6562389 C19.0293891,16.2831671 18.2000604,16.6673486 17.316016,16.7405911 C16.4320832,16.8138337 15.5507733,16.5713269 14.8286995,16.0562408 L20.0552868,10.8296534 C20.5701609,11.551504 20.8126844,12.4323675 20.7396372,13.3159655 C20.6667211,14.1994518 20.2830781,15.0286689 19.6567916,15.6562389 L19.6568474,15.6562389 Z M14.3443222,10.3437136 C14.9709156,9.71734347 15.7990445,9.33302244 16.6819728,9.25891495 C17.5649011,9.18480746 18.4455694,9.42578237 19.1677547,9.93902421 L13.9459107,15.17175 C13.4305902,14.4497878 13.1878714,13.568701 13.2608907,12.6846567 C13.3338068,11.8007239 13.717673,10.9713115 14.344378,10.3436299 L14.3443222,10.3437136 Z" id="Shape"></path>
                </g>
            </g>
        </g>
    </g>
</svg>