<?xml version="1.0" encoding="UTF-8"?>
<svg width="18px" height="18px" viewBox="0 0 18 18" version="1.1" xmlns="http://www.w3.org/2000/svg" xmlns:xlink="http://www.w3.org/1999/xlink">
    <!-- Generator: Sketch 57.1 (83088) - https://sketch.com -->
    <title>pix-banco-central</title>
    <desc>Created with Sketch.</desc>
    <g id="ui-app-stroogo" stroke="none" stroke-width="1" fill="none" fill-rule="evenodd">
        <g id="sacola---entrega/retirada" transform="translate(-42.000000, -491.000000)" fill="#32BCAD" fill-rule="nonzero">
            <g id="bt-pagamento" transform="translate(20.000000, 477.000000)">
                <g id="pix-banco-central" transform="translate(22.000000, 14.000000)">
                    <path d="M13.8262172,13.8518994 C13.1306581,13.8518994 12.4779026,13.5843767 11.9856608,13.0921348 L9.33183521,10.4383093 C9.14991974,10.2563938 8.81819155,10.2563938 8.63627608,10.4383093 L5.9717496,13.1028357 C5.47950776,13.5950776 4.82675227,13.8626003 4.13119315,13.8626003 L3.60684858,13.8626003 L6.9776351,17.2333868 C8.02632424,18.282076 9.73846977,18.282076 10.7871589,17.2333868 L14.1686463,13.8518994 L13.8262172,13.8518994 Z" id="path2376"></path>
                    <path d="M4.12049224,4.4565008 C4.81605136,4.4565008 5.46880685,4.72402354 5.96104869,5.21626538 L8.62557517,7.88079187 C8.81819155,8.07340824 9.12851792,8.07340824 9.3211343,7.88079187 L11.9856608,5.22696629 C12.4779026,4.73472445 13.1306581,4.46720171 13.8262172,4.46720171 L14.1472445,4.46720171 L10.7657571,1.08571429 C9.71706795,0.0370251471 8.00492242,0.0370251471 6.95623328,1.08571429 L3.58544676,4.4565008 L4.12049224,4.4565008 L4.12049224,4.4565008 Z" id="path2380"></path>
                    <path d="M16.9401819,7.26013911 L14.8963082,5.21626538 C14.8535045,5.2376672 14.8,5.24836811 14.7464955,5.24836811 L13.8155163,5.24836811 C13.3339754,5.24836811 12.8631354,5.44098448 12.5314072,5.78341359 L9.87758159,8.43723917 C9.63146067,8.68336009 9.29973248,8.811771 8.97870519,8.811771 C8.64697699,8.811771 8.32594971,8.68336009 8.07982879,8.43723917 L5.4153023,5.77271268 C5.07287319,5.43028357 4.60203317,5.2376672 4.13119315,5.2376672 L2.98619583,5.2376672 C2.93269128,5.2376672 2.88988764,5.22696629 2.847084,5.20556447 L0.792509363,7.26013911 C-0.256179775,8.30882825 -0.256179775,10.0209738 0.792509363,11.0696629 L2.83638309,13.1135367 C2.87918673,13.0921348 2.92199037,13.0814339 2.97549492,13.0814339 L4.12049224,13.0814339 C4.60203317,13.0814339 5.07287319,12.8888175 5.40460139,12.5463884 L8.06912788,9.88186196 C8.55066881,9.40032103 9.39604066,9.40032103 9.87758159,9.88186196 L12.5314072,12.5356875 C12.8738363,12.8781166 13.3446763,13.070733 13.8155163,13.070733 L14.7464955,13.070733 C14.8,13.070733 14.8428036,13.0814339 14.8963082,13.1028357 L16.9401819,11.058962 C17.9888711,10.0102729 17.9888711,8.30882825 16.9401819,7.26013911" id="path2384"></path>
                </g>
            </g>
        </g>
    </g>
</svg>