<?xml version="1.0" encoding="UTF-8"?>
<svg width="40px" height="40px" viewBox="0 0 40 40" version="1.1" xmlns="http://www.w3.org/2000/svg" xmlns:xlink="http://www.w3.org/1999/xlink">
    <!-- Generator: Sketch 57.1 (83088) - https://sketch.com -->
    <title>Combined Shape</title>
    <desc>Created with Sketch.</desc>
    <g id="ui-app-stroogo" stroke="none" stroke-width="1" fill="none" fill-rule="evenodd">
        <g id="login-cadastro-tipo" transform="translate(-61.000000, -344.000000)" fill="#4D4D4D" fill-rule="nonzero">
            <g id="bt-cliente" transform="translate(40.000000, 330.000000)">
                <path d="M26.834432,36.4381294 C27.2575532,36.4381294 27.6096335,36.7576618 27.661296,37.16735 L27.6678202,37.2715176 L27.6678202,37.663269 C30.4166768,36.9659222 33.1809735,37.4089894 35.9164099,39.0003302 L36.2445209,39.1968034 L42.6709514,39.1968034 C44.2546748,39.1968034 45.7299827,39.8722122 46.8302123,41.1056839 C47.1845646,41.4946788 47.4807883,41.9299134 47.7241241,42.3970827 L47.8638209,42.681102 L53.7899684,39.7636359 C56.3574686,38.5050697 59.3412163,39.455268 60.8914506,42.0308055 C61.0887076,42.3641462 61.03082,42.7802004 60.7681026,43.0473002 L60.6831928,43.1227299 L49.2808131,51.8246353 C47.4054217,53.2499863 45.1797786,54 42.9293982,54 C42.2834301,54 41.6374743,53.942101 41.0012159,53.8166129 L40.6207021,53.7331318 L29.4183641,51.1077624 L27.6678202,51.8828974 L27.6678202,52.2746488 C27.6678202,52.6977701 27.3482877,53.0498504 26.9385995,53.1015129 L26.834432,53.1080371 L21.8333882,53.1080371 C21.4102669,53.1080371 21.0581867,52.7885046 21.0065242,52.3788164 L21,52.2746488 L21,37.2715176 C21,36.8483963 21.3195325,36.4963161 21.7292207,36.4446536 L21.8333882,36.4381294 L26.834432,36.4381294 Z M27.9716007,39.3184516 L27.6679184,39.4053103 L27.6679184,50.0575334 L29.0015896,49.4739116 C29.1349889,49.4139105 29.2788818,49.3914173 29.4207628,49.4060743 L29.526601,49.4240271 L41.0039964,52.1161068 C43.4044974,52.6764523 45.9355308,52.1609345 48.0072811,50.6883064 L48.2638151,50.4992515 L59.0246949,42.2975478 C57.9206359,41.0012258 56.2249014,40.5423605 54.7120341,41.186104 L54.5239341,41.2723338 L48.364345,44.3062706 C48.447716,44.7311986 48.5059728,45.1648159 48.5059728,45.6064527 C48.5059728,46.029574 48.1864403,46.3816542 47.7767521,46.4333167 L47.6725846,46.4398409 L36.0031848,46.4398409 C35.5448034,46.4398409 35.1697966,46.0648341 35.1697966,45.6064527 C35.1697966,45.1833314 35.4893291,44.8312512 35.8990173,44.7795887 L36.0031848,44.7730645 L46.7804341,44.7730645 C46.7389254,44.5396854 46.6886908,44.3063063 46.6220617,44.081304 C46.4134736,43.3978578 46.0635791,42.7560185 45.5884532,42.2310071 C44.8572172,41.414095 43.9080025,40.9384496 42.890163,40.8786609 L42.6710586,40.8722414 L36.0028812,40.8722414 C35.8444999,40.8722414 35.6861276,40.8223551 35.5528676,40.7389815 C32.9882012,39.1040678 30.5005696,38.6402912 27.9716007,39.3184516 Z M26.001133,38.1053256 L22.667223,38.1053256 L22.667223,51.4411445 L26.001133,51.4411445 L26.001133,38.1053256 Z M54.3404405,23.168994 C54.7988219,23.168994 55.1738287,23.5440008 55.1738287,24.0023822 C55.1738287,28.7667884 52.3074004,32.9959421 47.9580074,34.7835202 L47.6722631,34.8966202 L47.6722631,35.6717552 C47.6722631,36.5406057 46.9988321,37.2594771 46.1484186,37.332741 L46.0051294,37.3388888 L41.0040857,37.3388888 C40.1352352,37.3388888 39.4163637,36.6654578 39.3430998,35.8150443 L39.336952,35.6717552 L39.336952,34.8966202 C34.8277966,33.1792975 31.8352167,28.8785785 31.8352167,24.0023822 C31.8352167,23.5792609 32.1550459,23.2271807 32.5647798,23.1755182 L32.6689532,23.168994 L54.3404405,23.168994 Z M53.471,24.844 L33.5353037,24.8441382 C33.8688554,28.8366679 36.5528978,32.2706882 40.4285281,33.5209491 C40.7324089,33.6173899 40.9505717,33.8849916 40.9953008,34.1948871 L41.0037731,34.3128287 L41.0037731,35.6715944 L46.0048169,35.6715944 L46.0048169,34.3128287 C46.0048169,33.9461986 46.2381959,33.629445 46.5797136,33.5125813 C50.361252,32.2928145 53.0078207,29.0025043 53.4443583,25.127471 L53.471,24.844 Z M53.472938,24.8357704 L53.471,24.844 L53.4725004,24.8441382 L53.472938,24.8357704 Z M47.3389971,14.0000089 C47.7973785,14.0000089 48.1723853,14.3750158 48.1723853,14.8333971 C48.1723853,15.6420659 47.6724953,16.0589297 47.3721379,16.3087051 C47.305508,16.3756833 47.1973649,16.4590543 47.172248,16.5005665 C47.1889926,16.5420752 47.2971357,16.633822 47.3724862,16.692428 C47.6724863,16.9422123 48.1723853,17.3591028 48.172037,18.1673787 C48.172037,18.9760475 47.6717987,19.392563 47.3717896,19.6426866 C47.3051597,19.7012881 47.1970166,19.7930358 47.1718997,19.8345481 C47.1718997,20.2929294 46.7968929,20.6679363 46.3385115,20.6679363 C45.8801301,20.6679363 45.5051233,20.2929294 45.5051233,19.8345481 C45.5051233,19.0262365 46.0053616,18.6093638 46.3053707,18.3592402 C46.3803774,18.3009959 46.4888652,18.2092535 46.5052606,18.1757644 C46.4888643,18.125879 46.380372,18.0341312 46.3053707,17.9758744 C46.0053705,17.7257329 45.5051233,17.3092353 45.5051233,16.5005665 C45.5051233,15.6918978 46.0053616,15.2753823 46.3057189,15.0252586 C46.3723489,14.9582804 46.480492,14.8749094 46.5056089,14.8333971 C46.5056089,14.3750158 46.8806157,14.0000089 47.3389971,14.0000089 Z M40.8876507,14 C41.346032,14 41.7210389,14.3750068 41.7210389,14.8333882 C41.7210389,15.642057 41.2208005,16.0585725 40.9207915,16.3086961 C40.8541615,16.3756744 40.7460184,16.4590454 40.7209016,16.5005576 C40.7456746,16.5420663 40.8541624,16.633814 40.9204432,16.6920708 C41.2204433,16.9422123 41.7206906,17.3587546 41.7206906,18.1673787 C41.7206906,18.9760475 41.2204523,19.392563 40.9204432,19.6426866 C40.8538132,19.7012881 40.7456701,19.7930358 40.7205533,19.8345481 C40.7205533,20.2929294 40.3455464,20.6679363 39.8871651,20.6679363 C39.4287837,20.6679363 39.0537768,20.2929294 39.0537768,19.8345481 C39.0537768,19.0258793 39.5540152,18.6093638 39.8540242,18.3592402 C39.9290309,18.3009869 40.0371687,18.2092446 40.0542624,18.1757554 C40.0378662,18.12587 39.9293739,18.0341223 39.8543725,17.9758655 C39.5543724,17.725724 39.0541251,17.3092264 39.0541251,16.5005576 C39.0541251,15.6918888 39.5543635,15.2753733 39.8543725,15.0252497 C39.9210025,14.9582714 40.0291456,14.8749005 40.0542624,14.8333882 C40.0542624,14.3750068 40.4292693,14 40.8876507,14 Z" id="Combined-Shape"></path>
            </g>
        </g>
    </g>
</svg>