<?xml version="1.0" encoding="UTF-8"?>
<svg width="16px" height="16px" viewBox="0 0 16 16" version="1.1" xmlns="http://www.w3.org/2000/svg" xmlns:xlink="http://www.w3.org/1999/xlink">
    <!-- Generator: Sketch 57.1 (83088) - https://sketch.com -->
    <title>ico sair</title>
    <desc>Created with Sketch.</desc>
    <g id="ui-app-stroogo" stroke="none" stroke-width="1" fill="none" fill-rule="evenodd">
        <g id="app-admin-home" transform="translate(-302.000000, -758.000000)" fill="#000000" fill-rule="nonzero">
            <g id="menu-footer-admin" transform="translate(0.000000, 722.000000)">
                <g id="menu-footer-chef">
                    <g id="links" transform="translate(17.000000, 26.000000)">
                        <g id="sair" transform="translate(276.000000, 0.000000)">
                            <path d="M20.2,20.1333333 L20.2,23.8666667 C20.2,25.0432 19.2432,26 18.0666667,26 L11.1333333,26 C9.9568,26 9,25.0432 9,23.8666667 L9,12.1333333 C9,10.9568 9.9568,10 11.1333333,10 L18.0666667,10 C19.2432,10 20.2,10.9568 20.2,12.1333333 L20.2,15.8666667 C20.2,16.1614293 19.9614293,16.4 19.6666667,16.4 C19.371904,16.4 19.1333333,16.1614293 19.1333333,15.8666667 L19.1333333,12.1333333 C19.1333333,11.5453562 18.6546438,11.0666667 18.0666667,11.0666667 L11.1333333,11.0666667 C10.5453562,11.0666667 10.0666667,11.5453562 10.0666667,12.1333333 L10.0666667,23.8666667 C10.0666667,24.4546438 10.5453562,24.9333333 11.1333333,24.9333333 L18.0666667,24.9333333 C18.6546438,24.9333333 19.1333333,24.4546438 19.1333333,23.8666667 L19.1333333,20.1333333 C19.1333333,19.8385707 19.371904,19.6 19.6666667,19.6 C19.9614293,19.6 20.2,19.8385707 20.2,20.1333333 Z M24.8439619,17.622979 L22.7106286,15.4896457 C22.5022964,15.2813135 22.1648,15.2813135 21.9564648,15.4896457 C21.7481326,15.6979779 21.7481326,16.0354743 21.9564648,16.2438095 L23.1793219,17.4666667 L14.866941,17.4666667 C14.5721783,17.4666667 14.3336076,17.7052373 14.3336076,18 C14.3336076,18.2947627 14.5721783,18.5333333 14.866941,18.5333333 L23.1793219,18.5333333 L21.9563429,19.7563124 C21.7480107,19.9646446 21.7480107,20.302141 21.9563429,20.5104762 C22.0606293,20.6146438 22.197056,20.6666667 22.3334857,20.6666667 C22.4699154,20.6666667 22.606461,20.614525 22.7106286,20.5103573 L24.8439619,18.377024 C25.0522941,18.1688107 25.0522941,17.8313173 24.8439619,17.6229821 L24.8439619,17.622979 Z" id="ico-sair"></path>
                        </g>
                    </g>
                </g>
            </g>
        </g>
    </g>
</svg>