<?xml version="1.0" encoding="UTF-8"?>
<svg width="11px" height="12px" viewBox="0 0 11 12" version="1.1" xmlns="http://www.w3.org/2000/svg" xmlns:xlink="http://www.w3.org/1999/xlink">
    <!-- Generator: Sketch 57.1 (83088) - https://sketch.com -->
    <title>ico-trash</title>
    <desc>Created with Sketch.</desc>
    <g id="ui-app-stroogo" stroke="none" stroke-width="1" fill="none" fill-rule="evenodd">
        <g id="app-chef---usuários" transform="translate(-276.000000, -226.000000)" fill="#E02020" fill-rule="nonzero">
            <g id="card-chef-big" transform="translate(5.000000, 162.000000)">
                <g id="bt" transform="translate(260.000000, 56.000000)">
                    <path d="M21.2354258,9.41164725 C21.4304129,9.41164725 21.5884133,9.56976554 21.5884133,9.7646347 C21.5884133,9.93514521 21.4674443,10.0775183 21.3065759,10.1104474 L21.2354258,10.1176221 L20.1765845,10.1176221 L20.1765845,18.2353048 C20.1765845,18.7034034 19.9906822,19.1522009 19.6596884,19.4831039 C19.3701747,19.7727367 18.9903518,19.9512607 18.5863302,19.9913662 L18.4118893,20 L14.176524,20 C13.7084254,20 13.2596279,19.8140977 12.9287249,19.4831039 C12.639092,19.1935902 12.4605681,18.8137673 12.4204626,18.4097457 L12.4118288,18.2353048 L12.4118288,10.1176221 L11.3529874,10.1176221 C11.1580003,10.1176221 11,9.95950386 11,9.7646347 C11,9.59412419 11.120969,9.45175106 11.2818374,9.418822 L11.3529874,9.41164725 L21.2354258,9.41164725 Z M19.4706096,10.1177432 L13.1175616,10.1177432 L13.1175616,18.2354258 C13.1175616,18.5162003 13.2291181,18.7855272 13.4276509,18.9841779 C13.5979126,19.1543488 13.8201129,19.2606188 14.0569421,19.2875088 L14.176403,19.2942671 L18.4117683,19.2942671 C18.6925427,19.2942671 18.9618696,19.1827106 19.1605203,18.9841779 C19.3306913,18.8139162 19.4369613,18.5917158 19.4638513,18.3548867 L19.4706096,18.2354258 L19.4706096,10.1177432 Z M15.2353048,12.2353653 C15.4058153,12.2353653 15.5481884,12.356332 15.5811175,12.5171207 L15.5882922,12.5882317 L15.5882922,16.823597 C15.5882922,16.9171926 15.5510664,17.0070035 15.4848888,17.0731811 C15.4187112,17.1393586 15.3289003,17.1765845 15.2353048,17.1765845 C15.1417093,17.1765845 15.0518984,17.1393586 14.9857208,17.0731811 C14.9360876,17.0235479 14.9027398,16.9606209 14.8891679,16.8927739 L14.8823173,16.823597 L14.8823173,12.5882317 C14.8823173,12.3933656 15.0404356,12.2353653 15.2353048,12.2353653 Z M17.3529874,12.2353653 C17.5478566,12.2353653 17.7059749,12.3933626 17.7059749,12.5882317 L17.7059749,12.5882317 L17.7059749,16.823597 C17.7059749,16.9171926 17.6687491,17.0070035 17.6025715,17.0731811 C17.5363939,17.1393586 17.446583,17.1765845 17.3529874,17.1765845 C17.2593919,17.1765845 17.169581,17.1393586 17.1034034,17.0731811 C17.0372258,17.0070035 17,16.9171926 17,16.823597 L17,16.823597 L17,12.5882317 C17,12.3933656 17.1581183,12.2353653 17.3529874,12.2353653 Z M17.7059144,8 C17.9007805,8 18.0587808,8.15799728 18.0587808,8.35286643 C18.0587808,8.52348018 17.9378142,8.66577588 17.7770254,8.69868397 L17.7059144,8.70585388 L14.8822568,8.70585388 C14.6873907,8.70585388 14.5293904,8.54785358 14.5293904,8.35286643 C14.5293904,8.18235857 14.6503571,8.0400761 14.8111459,8.00716967 L14.8822568,8 L17.7059144,8 Z" id="ico-trash"></path>
                </g>
            </g>
        </g>
    </g>
</svg>