<?xml version="1.0" encoding="UTF-8"?>
<svg width="16px" height="23px" viewBox="0 0 16 23" version="1.1" xmlns="http://www.w3.org/2000/svg" xmlns:xlink="http://www.w3.org/1999/xlink">
    <!-- Generator: Sketch 57.1 (83088) - https://sketch.com -->
    <title>ico-chef</title>
    <desc>Created with Sketch.</desc>
    <g id="Symbols" stroke="none" stroke-width="1" fill="none" fill-rule="evenodd">
        <g id="menu-footer-chef" transform="translate(-303.000000, -27.000000)" fill="#000000" fill-rule="nonzero">
            <g id="links">
                <g transform="translate(26.000000, 20.000000)">
                    <g id="eu" transform="translate(277.000000, 7.000000)">
                        <path d="M5.10788965,11.2518082 C5.53926309,11.2518082 5.95034191,11.4335374 6.23368244,11.7250356 L6.33373756,11.8393523 L7.66183448,13.5759436 L8.98993139,11.8391699 C9.26231164,11.5213497 9.65587588,11.3044549 10.0627769,11.2601798 L10.2157793,11.2518082 L12.2589851,11.2516258 C13.8844325,11.2516258 15.2247794,12.5340906 15.3184452,14.1371125 L15.3236732,14.3164964 L15.3238514,21.4675419 C15.3238514,22.2635644 14.708695,22.9229036 13.9303502,22.9937067 L13.7913933,23 L1.53245811,23 C0.736435565,23 0.0770963649,22.3848436 0.00629331349,21.6064988 L1.77635684e-13,21.4675419 L1.77635684e-13,14.3164964 C1.77635684e-13,12.6910489 1.28229519,11.3507021 2.88530502,11.2570363 L3.06468818,11.2518082 L5.10788965,11.2518082 Z M5.10798515,12.2735187 L3.06478368,12.2735187 C1.99208332,12.2735187 1.1055881,13.1112548 1.02721395,14.1648111 L1.02158222,14.3167201 L1.02176035,21.4677656 C1.02176035,21.7174806 1.20333097,21.9268082 1.44099528,21.9702425 L1.53250371,21.978509 L13.7914389,21.9783309 C14.0411539,21.9783309 14.2505497,21.7967602 14.2939992,21.5590959 L14.3022686,21.4675875 L14.3022686,14.3167201 C14.3022686,13.2440198 13.4645325,12.3575245 12.4109762,12.2791504 L12.2590671,12.2735187 L10.2158657,12.2735187 C10.0933019,12.2735187 9.97062131,12.3225456 9.87418654,12.4075561 L9.80719346,12.477857 L8.07060219,14.7508679 C7.88667712,14.9807886 7.53727489,15.0037807 7.32027101,14.8198442 L7.25324864,14.7508679 L5.51665737,12.477857 C5.4144038,12.3501233 5.26119448,12.2735187 5.10798515,12.2735187 Z M5.87416431,19.9352662 C6.15617455,19.9352662 6.38490767,20.1638306 6.38490767,20.4460096 C6.38490767,20.7281977 6.15616543,20.9567529 5.87416431,20.9567529 C5.59197621,20.9567529 5.36342095,20.7281885 5.36342095,20.4460096 C5.36342095,20.1638306 5.59198533,19.9352662 5.87416431,19.9352662 Z M9.44968707,19.9352662 C9.73187517,19.9352662 9.96043043,20.1638306 9.96043043,20.4460096 C9.96043043,20.7281977 9.73186605,20.9567529 9.44968707,20.9567529 C9.16767683,20.9567529 8.93894371,20.7281885 8.93894371,20.4460096 C8.93894371,20.1638306 9.16768595,19.9352662 9.44968707,19.9352662 Z M5.87416431,17.8921103 C6.15617455,17.8921103 6.38490767,18.1208526 6.38490767,18.4028537 C6.38490767,18.6850418 6.15616543,18.9135971 5.87416431,18.9135971 C5.59197621,18.9135971 5.36342095,18.6850327 5.36342095,18.4028537 C5.36342095,18.1208435 5.59198533,17.8921103 5.87416431,17.8921103 Z M9.44968707,17.8921103 C9.73187517,17.8921103 9.96043043,18.1208526 9.96043043,18.4028537 C9.96043043,18.6850418 9.73186605,18.9135971 9.44968707,18.9135971 C9.16767683,18.9135971 8.93894371,18.6850327 8.93894371,18.4028537 C8.93894371,18.1208435 9.16768595,17.8921103 9.44968707,17.8921103 Z M5.87416431,15.8489545 C6.15617455,15.8489545 6.38490767,16.0776967 6.38490767,16.3596978 C6.38490767,16.6418859 6.15616543,16.8706236 5.87416431,16.8706236 C5.59197621,16.8706236 5.36342095,16.6418814 5.36342095,16.3596978 C5.36342095,16.0776876 5.59198533,15.8489545 5.87416431,15.8489545 Z M9.44968707,15.8489545 C9.73187517,15.8489545 9.96043043,16.0776967 9.96043043,16.3596978 C9.96043043,16.6418859 9.73186605,16.8706236 9.44968707,16.8706236 C9.16767683,16.8706236 8.93894371,16.6418814 8.93894371,16.3596978 C8.93894371,16.0776876 9.16768595,15.8489545 9.44968707,15.8489545 Z M3.29457514,0.0144692031 C4.00967969,-0.0621491417 4.75023248,0.167660286 5.28665211,0.65295541 C5.41438127,0.780506711 5.5166394,0.908240437 5.61871966,1.03597416 C6.07852094,0.423159663 6.81907373,0.0144874456 7.66192113,0.0144874456 C8.50476853,0.0144874456 9.24550374,0.422981799 9.7051226,1.03597416 C9.8071983,0.908422862 9.90945642,0.780689136 10.0370123,0.678431009 C10.5732495,0.193154129 11.3139847,-0.0366598602 12.0290893,0.0399448027 C13.1785012,0.16768765 14.123397,1.08710779 14.2766063,2.23633735 C14.4043492,3.1558031 14.0213486,4.10067147 13.2551196,4.6370911 C13.1019103,4.73934466 13.0253056,4.89255399 13.0253056,5.04576331 L13.0253056,5.04576331 L13.0253056,8.18706984 C13.0253056,9.02991724 12.3356493,9.71952795 11.4928475,9.71952795 L11.4928475,9.71952795 L3.83101301,9.71952795 C2.98816561,9.71952795 2.2985549,9.02987164 2.2985549,8.18706984 L2.2985549,8.18706984 L2.2985549,5.04576331 C2.2985549,4.89255855 2.22195024,4.73917136 2.06874092,4.6370911 C1.32817901,4.07519587 0.919502228,3.15577573 1.04705809,2.21086175 C1.20024917,1.06163219 2.14534558,0.142202929 3.29457514,0.0144692031 Z M11.9014426,1.03598328 C11.4673176,0.984854222 11.0331561,1.13805899 10.7010886,1.41900204 C10.369208,1.72542981 10.1903452,2.13408379 10.1903452,2.5682316 C10.1903452,2.84916097 9.9605449,3.07897496 9.67960185,3.07897496 C9.39867248,3.07897496 9.16885849,2.84917466 9.16885849,2.5682316 C9.16885849,1.72538421 8.47920217,1.0357735 7.63640038,1.0357735 C6.79355298,1.0357735 6.10394227,1.72542981 6.10394227,2.5682316 C6.10394227,2.84916097 5.87412828,3.07897496 5.59319891,3.07897496 C5.31226954,3.07897496 5.08245555,2.84917466 5.08245555,2.5682316 C5.08245555,2.13410659 4.90377975,1.69994509 4.57171219,1.41900204 C4.29077826,1.16371701 3.93324423,1.03598328 3.55022548,1.03598328 L3.55022548,1.03598328 L3.37136269,1.03598328 C2.68175198,1.11260163 2.11987043,1.67446949 2.04326577,2.3640802 C1.99204978,2.92597087 2.22185921,3.46237681 2.68166049,3.7942665 C3.09033271,4.10083109 3.3201467,4.56044995 3.3201467,5.04574507 L3.3201467,5.04574507 L3.3201467,8.1870516 C3.3201467,8.46798097 3.54994701,8.69779496 3.83089006,8.69779496 L3.83089006,8.69779496 L11.4416456,8.69779496 C11.722575,8.69779496 11.952389,8.46799465 11.952389,8.1870516 L11.952389,8.1870516 L11.9525671,5.04574507 C11.9525671,4.56049555 12.1823811,4.10068515 12.5910533,3.7942665 C12.9997256,3.51333257 13.2295395,3.05371371 13.2295395,2.56841859 L13.2295395,2.56841859 L13.2295395,2.3640802 C13.1529212,1.67446949 12.5910533,1.11258795 11.9014426,1.03598328 Z" id="ico-chef"></path>
                    </g>
                </g>
            </g>
        </g>
    </g>
</svg>