<?xml version="1.0" encoding="UTF-8"?>
<svg width="30px" height="25px" viewBox="0 0 30 25" version="1.1" xmlns="http://www.w3.org/2000/svg" xmlns:xlink="http://www.w3.org/1999/xlink">
    <!-- Generator: Sketch 57.1 (83088) - https://sketch.com -->
    <title>ico produtos</title>
    <desc>Created with Sketch.</desc>
    <g id="Symbols" stroke="none" stroke-width="1" fill="none" fill-rule="evenodd">
        <g id="menu-footer-chef" transform="translate(-212.000000, -25.000000)" fill="#000000" fill-rule="nonzero">
            <g id="links">
                <g transform="translate(26.000000, 20.000000)">
                    <g id="produtos" transform="translate(175.000000, 5.000000)">
                        <path d="M25.5061481,8.89131558 C27.1384296,8.89131558 28.4620048,10.2208283 28.4620048,11.8471722 C28.4620048,11.9123912 28.4620048,11.9837128 28.4560758,12.0548648 C30.5809479,12.4466963 32.5396589,13.2658058 34.1422527,14.4528627 C36.582726,16.264442 38.0490951,18.797494 38.4141058,21.823438 L38.4513275,22.1747598 L39.6682337,22.1747598 C39.8395936,22.1747598 39.9837121,22.2974618 40.0170643,22.4593317 L40.0243329,22.530859 L40.0243329,24.6439008 C40.0243329,24.8152606 39.9016309,24.9593792 39.739761,24.9927314 L39.6682337,25 L11.3560992,25 C11.1847394,25 11.0406208,24.877298 11.0072686,24.7154281 L11,24.6439008 L11,22.530859 C11,22.3594992 11.122702,22.2153806 11.2845719,22.1820284 L11.3560992,22.1747598 L12.5727991,22.1747598 C12.8636928,18.9935007 14.3475364,16.3284038 16.8700436,14.4528627 C18.4725928,13.2656272 20.4313037,12.4465356 22.5562205,12.0548648 C22.5562205,11.9896459 22.5502915,11.9183242 22.5502915,11.8471722 C22.5502915,11.0577057 22.8589531,10.3156947 23.4168118,9.75783592 C23.9748491,9.19998164 24.7166816,8.89131558 25.5061481,8.89131558 Z M39.3060621,22.886994 L11.7122333,22.886994 L11.7122333,24.2878462 L39.3062365,24.2878462 L39.3060621,22.886994 Z M24.7920734,12.5190493 L24.3071153,12.5475086 L24.223932,12.5534377 L24.2000792,12.553291 C19.1867518,12.9904336 14.0703319,15.9471821 13.321364,21.8498588 L13.2848695,22.1747471 L37.7389572,22.1745727 C37.1456519,16.0671446 31.9460835,13.010484 26.8474082,12.5593667 C26.829622,12.5593667 26.8059054,12.5534377 26.7881179,12.5534377 C26.7703312,12.5475086 26.7525437,12.5475086 26.7347561,12.5475086 C26.0889686,12.5000763 25.439381,12.4905899 24.7920734,12.5190493 Z M30.7948771,15.485455 C33.0383656,16.3819754 34.5817183,18.1685876 35.1336395,20.5189515 C35.18122,20.7087636 35.0624607,20.8986709 34.8666253,20.9403491 C34.8368038,20.9462782 34.8130877,20.9522072 34.7834421,20.9522072 C34.6231827,20.9522072 34.4807086,20.8453096 34.4392045,20.6791171 C33.7981759,17.9664308 31.9582152,16.7140165 30.5277201,16.1442827 C30.3496722,16.0729611 30.2607327,15.8652685 30.3318847,15.6812903 C30.4032063,15.5032425 30.6108989,15.414303 30.7948771,15.485455 Z M25.5119602,9.60351851 C24.9124049,9.60351851 24.3486265,9.83492989 23.9271343,10.2564222 C23.505642,10.6778966 23.2742306,11.2416928 23.2742306,11.8412481 C23.2742306,11.876833 23.2742306,11.9064769 23.2801681,11.9422261 C24.0103041,11.841257 24.7580741,11.7878953 25.5178977,11.7878953 C26.1257566,11.7878953 26.7259869,11.8220468 27.3155257,11.8874036 L27.7556273,11.9422261 L27.7556273,11.8471856 C27.7556273,10.6066017 26.7466066,9.60351851 25.5119602,9.60351851 Z M22.0219949,1.85804102 C22.1933547,1.85804102 22.3374733,1.98074303 22.3708255,2.14261294 L22.3780941,2.21414025 L22.3780941,7.5440662 C22.3780941,7.73990604 22.2178303,7.90016543 22.0219949,7.90016543 C21.8454475,7.90031777 21.7052196,7.77763481 21.6729211,7.61565064 L21.6658957,7.5440662 L21.6658957,2.21414025 C21.6658957,2.01830041 21.826155,1.85804102 22.0219949,1.85804102 Z M29.192279,1.85804102 C29.3881189,1.85804102 29.5483783,2.01830487 29.5483783,2.21414025 L29.5483783,2.21414025 L29.5482039,7.5440662 C29.5482039,7.73990604 29.38794,7.90016543 29.1921047,7.90016543 C28.9903365,7.90033954 28.8360054,7.74007569 28.8361797,7.5440662 L28.8361797,7.5440662 L28.8361797,2.21414025 C28.8361797,2.01830041 28.9964437,1.85804102 29.192279,1.85804102 Z M25.607273,-7.10542736e-15 C25.7786328,-7.10542736e-15 25.9227514,0.122702011 25.9561036,0.284571919 L25.9633722,0.356099232 L25.9633722,5.69227519 C25.9633722,5.88811504 25.8031084,6.04837442 25.607273,6.04837442 C25.4305733,6.04824552 25.2903261,5.92552739 25.2581419,5.75956714 L25.2511736,5.68602517 L25.2511736,0.356099232 C25.2511736,0.160259386 25.4114376,-7.10542736e-15 25.607273,-7.10542736e-15 Z" id="ico-produtos"></path>
                    </g>
                </g>
            </g>
        </g>
    </g>
</svg>