<?xml version="1.0" encoding="UTF-8"?>
<svg width="21px" height="17px" viewBox="0 0 21 17" version="1.1" xmlns="http://www.w3.org/2000/svg" xmlns:xlink="http://www.w3.org/1999/xlink">
    <!-- Generator: Sketch 57.1 (83088) - https://sketch.com -->
    <title>cartao</title>
    <desc>Created with Sketch.</desc>
    <g id="ui-app-stroogo" stroke="none" stroke-width="1" fill="none" fill-rule="evenodd">
        <g id="sacola---entrega/retirada" transform="translate(-40.000000, -546.000000)" fill="#4D4D4D" fill-rule="nonzero">
            <g id="bt-pagamento" transform="translate(20.000000, 532.000000)">
                <path d="M37.583969,14.2346933 L23.3462629,14.2346933 C22.4587491,14.2359777 21.6081215,14.5895374 20.9812033,15.217741 C20.3542851,15.8459445 20.0024899,16.6973791 20.0030571,17.584893 L20.0030571,26.8844936 C20.0024741,27.7720075 20.3542851,28.6233524 20.9812033,29.2516456 C21.6081215,29.8798492 22.4587491,30.233408 23.3462629,30.2346933 L37.583969,30.2346933 C38.4714829,30.2334089 39.3221104,29.8798492 39.9490287,29.2516456 C40.5759469,28.6233225 40.927742,27.7720075 40.9271748,26.8844936 L40.9271748,17.584893 C40.9277579,16.6973791 40.5759469,15.8459146 39.9490287,15.217741 C39.3221104,14.5895673 38.4714829,14.2359786 37.583969,14.2346933 Z M23.3462629,15.2832325 L37.583969,15.2832325 C38.1936099,15.2839342 38.7778726,15.526803 39.2082829,15.9584867 C39.6386633,16.3901525 39.8799191,16.9752821 39.8786389,17.584893 L39.8786389,17.6639416 L21.0468711,17.6639416 L21.0468711,17.584893 C21.0457077,16.9745647 21.2874107,16.3887475 21.7188403,15.9568427 C22.1502968,15.5250573 22.7357553,15.2826358 23.3461733,15.2832325 L23.3462629,15.2832325 Z M37.583969,29.186154 L23.3462629,29.186154 C22.7366221,29.1854523 22.1523593,28.9425836 21.721949,28.5108999 C21.2915686,28.0791146 21.0503129,27.4941045 21.0515931,26.8844936 L21.0515931,20.839798 L39.8833608,20.839798 L39.8833608,26.8844936 C39.8845243,27.4948219 39.6428213,28.080639 39.2113917,28.5125439 C38.7799352,28.9443293 38.1944767,29.1867508 37.5840587,29.186154 L37.583969,29.186154 Z M30.6975238,23.4272219 L22.997427,23.4272219 C22.8312711,23.4272219 22.6777355,23.338599 22.5946964,23.1947453 C22.5115617,23.0508916 22.5115617,22.8736489 22.5946964,22.7297802 C22.6777146,22.5858099 22.8312622,22.4971871 22.997427,22.4971871 L30.6975238,22.4971871 C30.8636797,22.4971871 31.0170957,22.5858099 31.1002544,22.7297802 C31.1832726,22.8736339 31.1832726,23.0508767 31.1002544,23.1947453 C31.0171197,23.338599 30.8636887,23.4272219 30.6975238,23.4272219 Z M26.8474754,25.5196395 L22.997427,25.5196395 C22.8312711,25.5196395 22.6777355,25.4310166 22.5946964,25.2871629 C22.5115617,25.1433092 22.5115617,24.9660665 22.5946964,24.8221978 C22.6777146,24.6782275 22.8312622,24.5896047 22.997427,24.5896047 L26.8474754,24.5896047 C27.0136313,24.5896047 27.1671669,24.6782275 27.250206,24.8221978 C27.3332242,24.9660515 27.3332242,25.1432943 27.250206,25.2871629 C27.1671878,25.4310166 27.0136403,25.5196395 26.8474754,25.5196395 Z" id="cartao"></path>
            </g>
        </g>
    </g>
</svg>