<?xml version="1.0" encoding="UTF-8"?>
<svg width="28px" height="20px" viewBox="0 0 28 20" version="1.1" xmlns="http://www.w3.org/2000/svg" xmlns:xlink="http://www.w3.org/1999/xlink">
    <!-- Generator: Sketch 57.1 (83088) - https://sketch.com -->
    <title>cam</title>
    <desc>Created with Sketch.</desc>
    <g id="ui-app-stroogo" stroke="none" stroke-width="1" fill="none" fill-rule="evenodd" fill-opacity="0.5">
        <g id="cadastro---chef" transform="translate(-266.000000, -1286.000000)" fill="#000000" fill-rule="nonzero">
            <path d="M275.62906,1286.00065 C275.430476,1286.0194 275.2526,1286.13188 275.150585,1286.30344 L273.138792,1289.75062 L268.500078,1289.75062 C267.125903,1289.75062 266,1290.8763 266,1292.25048 L266,1303.50002 C266,1304.8742 267.125903,1305.99994 268.500078,1305.99994 L278.500169,1305.99994 C278.667364,1306.00227 278.828453,1305.93731 278.947472,1305.81982 C279.066491,1305.70232 279.133411,1305.5421 279.133411,1305.37491 C279.133411,1305.20771 279.066491,1305.04749 278.947472,1304.93 C278.828453,1304.81272 278.667364,1304.74777 278.500169,1304.74994 L268.500078,1304.74994 C267.796668,1304.74994 267.250179,1304.20323 267.250179,1303.50004 L267.250179,1292.2505 C267.250179,1291.54726 267.796886,1291.0006 268.500078,1291.0006 L273.500235,1291.0006 L273.500017,1291.0006 C273.721928,1290.99907 273.926176,1290.88027 274.037132,1290.68822 L276.039103,1287.2508 L283.461045,1287.2508 L285.463016,1290.68822 C285.573971,1290.88027 285.778438,1290.99907 286.00013,1291.0006 L291.000287,1291.0006 C291.703698,1291.0006 292.250187,1291.54731 292.250187,1292.2505 L292.250187,1303.50004 C292.250187,1304.20329 291.70348,1304.74994 291.000287,1304.74994 L281.000197,1304.74994 C280.833002,1304.74776 280.671913,1304.8125 280.552894,1304.93 C280.433875,1305.04749 280.366954,1305.20771 280.366954,1305.37491 C280.366954,1305.5421 280.433875,1305.70232 280.552894,1305.81982 C280.671913,1305.93731 280.833002,1306.00205 281.000197,1305.99994 L291.000287,1305.99994 C292.374463,1305.99994 293.500366,1304.87397 293.500366,1303.50002 L293.500366,1292.25048 C293.500366,1290.8763 292.374463,1289.75062 291.000287,1289.75062 L286.361573,1289.75062 L284.349781,1286.30344 L284.349999,1286.30344 C284.236649,1286.1151 284.032613,1286.00022 283.812884,1286.00065 L275.687811,1286.00065 C275.66841,1285.99978 275.648792,1285.99978 275.629172,1286.00065 L275.62906,1286.00065 Z M279.750303,1292.56321 C276.823658,1292.56321 274.437811,1294.94906 274.437811,1297.87548 C274.437811,1300.8019 276.823658,1303.18775 279.750303,1303.18775 C282.676948,1303.18775 285.062795,1300.8019 285.062795,1297.87548 C285.062795,1294.94906 282.676948,1292.56321 279.750303,1292.56321 Z M279.750303,1293.81311 C282.001439,1293.81311 283.812896,1295.62457 283.812896,1297.87548 C283.812896,1300.1264 282.001439,1301.93785 279.750303,1301.93785 C277.499167,1301.93785 275.68771,1300.1264 275.68771,1297.87548 C275.68771,1295.62435 277.499167,1293.81311 279.750303,1293.81311 Z" id="cam"></path>
        </g>
    </g>
</svg>