<?xml version="1.0" encoding="UTF-8"?>
<svg width="15px" height="25px" viewBox="0 0 15 25" version="1.1" xmlns="http://www.w3.org/2000/svg" xmlns:xlink="http://www.w3.org/1999/xlink">
    <!-- Generator: Sketch 57.1 (83088) - https://sketch.com -->
    <title>ico cozinha</title>
    <desc>Created with Sketch.</desc>
    <g id="Symbols" stroke="none" stroke-width="1" fill="none" fill-rule="evenodd">
        <g id="menu-footer-chef" transform="translate(-41.000000, -25.000000)" fill="#000000" fill-rule="nonzero">
            <g id="links">
                <g transform="translate(26.000000, 20.000000)">
                    <g id="cozinha">
                        <path d="M29.4999262,5 C29.6325406,5 29.7596901,5.05273477 29.8534396,5.14648436 C29.9471892,5.24023394 29.999924,5.36738338 29.999924,5.5 L29.999924,5.5 L29.999924,13.0109648 C29.999124,13.5383124 29.7893749,14.0437552 29.4165266,14.4166086 C29.0436782,14.7894619 28.5382304,14.9992248 28.0108828,15 L28.0108828,15 L26.9999372,15 L26.9999372,19.999984 L28.4999306,19.999984 C28.632545,19.999984 28.7596945,20.0527188 28.853444,20.1464684 C28.9471936,20.2402179 28.9999284,20.3673674 28.9999284,20.4999818 L28.9999284,20.4999818 L28.9999284,27.499951 C28.9999284,28.3930971 28.5233805,29.2185084 27.7499339,29.6649915 C26.9764873,30.1116695 26.0233915,30.1116695 25.2499449,29.6649915 C24.4765083,29.2184934 23.9999548,28.3930971 23.9999548,27.499951 L23.9999548,27.499951 L23.9999548,20.4999818 C23.9999548,20.223813 24.2237794,19.999984 24.4999548,19.999984 L24.4999548,19.999984 L25.9999416,19.999984 L25.9999416,15 L24.988996,15 C24.4616484,14.999206 23.9562056,14.7894569 23.5833522,14.4166086 C23.2104989,14.0437602 23.000736,13.5383124 22.9999548,13.0109648 L22.9999548,13.0109648 L22.9999548,5.5 C22.9999548,5.22382902 23.2237838,5 23.4999548,5 C23.7761214,5 23.9999548,5.22382902 23.9999548,5.5 L23.9999548,5.5 L23.9999548,13.0109648 C23.9999548,13.2732536 24.1040549,13.5248175 24.2895991,13.7103617 C24.4751483,13.8959109 24.7266922,14.0000104 24.988996,14.0000104 L24.988996,14.0000104 L25.9999416,14.0000104 L25.9999416,5.5000478 C25.9999416,5.22387901 26.2237706,5 26.4999394,5 C26.7761082,5 26.9999372,5.22387901 26.9999372,5.5000478 L26.9999372,5.5000478 L26.9999372,14.0000104 L28.0108828,14.0000104 C28.2731716,14.0000104 28.5247355,13.8959059 28.7102797,13.7103617 C28.8958289,13.5248125 28.9999284,13.2732686 28.9999284,13.0109648 L28.9999284,13.0109648 L28.9999284,5.5 C28.9999284,5.22382902 29.2237574,5 29.4999262,5 Z M19.4999702,5 C19.6325846,5 19.7597341,5.05273477 19.8534836,5.14648436 C19.9472332,5.24023394 19.999968,5.36738338 19.999968,5.5 L19.999968,5.5 L19.999968,19.999934 L20.4999758,19.999934 C20.6325902,19.999934 20.7597397,20.0526688 20.8534892,20.1464184 C20.9472388,20.2401679 20.9999736,20.3673174 20.9999736,20.4999318 L20.9999736,20.4999318 L20.9999736,27.499901 C20.9999736,28.3930471 20.5234257,29.2184584 19.7499791,29.6649415 C18.9765325,30.1116195 18.0234367,30.1116195 17.2499901,29.6649415 C16.4765535,29.2184434 16,28.3930471 16,27.499901 L16,27.499901 L16,20.4999318 C16,20.223763 16.2238246,19.999934 16.5,19.999934 L16.5,19.999934 L17,19.999934 L17,16.9999472 L15.5,16.9999472 C15.3673834,16.9999472 15.2402339,16.9472124 15.1464844,16.8534628 C15.0527348,16.7597133 15,16.6325638 15,16.4999494 L15,16.4999494 L15,9.10798192 C15.0014,8.01893672 15.4345981,6.97482131 16.2046947,6.2046947 C16.9747913,5.43456809 18.0189367,5.00136719 19.1079819,5 L19.1079819,5 Z M19.999968,20.9999296 L16.9999812,20.9999296 L16.9999812,27.499901 C16.9999812,28.0357986 17.2859299,28.5309265 17.7499779,28.7988953 C18.2140259,29.0668641 18.7859133,29.0668441 19.2499713,28.7988953 C19.7140293,28.5309465 19.999968,28.0358486 19.999968,27.499901 L19.999968,27.499901 L19.999968,20.9999296 Z M27.9999328,20.9999296 L24.999946,20.9999296 L24.999946,27.499901 C24.999946,28.0357986 25.2858947,28.5309265 25.7499427,28.7988953 C26.2139907,29.0668641 26.7858781,29.0668441 27.2499361,28.7988953 C27.7139941,28.5309465 27.9999328,28.0358486 27.9999328,27.499901 L27.9999328,27.499901 L27.9999328,20.9999296 Z M18.9999724,6.00194559 C18.1953259,6.03104546 17.4330193,6.37069397 16.8736318,6.94999142 C16.3142442,7.52928887 16.0009621,8.30273547 15.9999856,9.10798192 L15.9999856,9.10798192 L15.9999856,15.9999516 L17.4999856,15.9999516 C17.6325934,15.9999516 17.7597429,16.0526864 17.8534924,16.146436 C17.947242,16.2401855 17.9999856,16.367335 17.9999856,16.4999494 L17.9999856,16.4999494 L17.9999856,20.001884 L18.9999724,20.001884 Z" id="ico-cozinha"></path>
                    </g>
                </g>
            </g>
        </g>
    </g>
</svg>