<?xml version="1.0" encoding="UTF-8"?>
<svg width="21px" height="21px" viewBox="0 0 21 21" version="1.1" xmlns="http://www.w3.org/2000/svg" xmlns:xlink="http://www.w3.org/1999/xlink">
    <!-- Generator: Sketch 57.1 (83088) - https://sketch.com -->
    <title>lipa</title>
    <desc>Created with Sketch.</desc>
    <g id="Symbols" stroke="none" stroke-width="1" fill="none" fill-rule="evenodd">
        <g id="menu-footer-cliente" transform="translate(-122.000000, -31.000000)" fill="#4D4D4D" fill-rule="nonzero">
            <g id="links" transform="translate(39.000000, 31.000000)">
                <path d="M103.801,18.4309392 L98.5385628,13.1491713 C100.771782,9.79005525 100.32956,5.32596685 97.4772309,2.47513812 C95.8631219,0.883977901 93.740458,0 91.4630166,0 C89.1855752,0 87.0629113,0.883977901 85.4709134,2.47513812 C82.1763622,5.79005525 82.1763622,11.160221 85.4709134,14.4530387 C88.323243,17.3038674 92.7896815,17.7458564 96.1505659,15.5359116 L101.435115,20.8176796 C101.678336,21.0607735 102.098447,21.0607735 102.341669,20.8176796 L103.801,19.359116 C104.066333,19.0939227 104.066333,18.6740331 103.801,18.4309392 Z M95.5314556,12.5303867 C93.2982364,14.7624309 89.6499079,14.7624309 87.3945775,12.5303867 C85.1613583,10.2983425 85.1613583,6.6519337 87.3945775,4.39779006 C89.6277968,2.16574586 93.2761253,2.16574586 95.5314556,4.39779006 C97.7646749,6.6519337 97.7646749,10.2983425 95.5314556,12.5303867 Z" id="lipa"></path>
            </g>
        </g>
    </g>
</svg>