<?xml version="1.0" encoding="UTF-8"?>
<svg width="39px" height="40px" viewBox="0 0 39 40" version="1.1" xmlns="http://www.w3.org/2000/svg" xmlns:xlink="http://www.w3.org/1999/xlink">
    <!-- Generator: Sketch 57.1 (83088) - https://sketch.com -->
    <title>ico-entrega</title>
    <desc>Created with Sketch.</desc>
    <g id="ui-app-stroogo" stroke="none" stroke-width="1" fill="none" fill-rule="evenodd">
        <g id="sacola---entrega/retirada" transform="translate(-16.000000, -182.000000)" fill-rule="nonzero">
            <g id="dados-entrega" transform="translate(5.000000, 139.000000)">
                <g id="ico-entrega" transform="translate(11.000000, 43.000000)">
                    <path d="M16.5217391,40.000009 L1.87826087,40.000009 C1.39186517,40.0015592 0.927043326,39.7993576 0.596580482,39.4424577 C0.266117638,39.0855578 0.10021608,38.6065782 0.139130435,38.1217391 L0.965217391,27.826087 L13.0434783,27.826087 C16.5217391,40.0695652 15.8521739,37.6347826 16.5217391,40.000009 Z" id="Path" fill="#6FABE6"></path>
                    <path d="M22.6086957,6.95651265 L22.6086957,22.6086957 L1.37391304,22.6086957 L2.47826087,8.55652174 C2.55095135,7.65074446 3.30870659,6.95360964 4.2173913,6.95651265 L5.2173913,6.95651265 C5.2173913,10.8 12.173913,19.1304348 12.173913,19.1304348 C12.173913,19.1304348 19.1304348,10.8 19.1304348,6.95651265 L22.6086957,6.95651265 Z" id="Path" fill="#9DCC6B"></path>
                    <path d="M36.8869565,22.6086957 L27.826087,22.6086957 L27.826087,6.95651265 L34.0434783,6.95651265 C34.952163,6.95360964 35.7099182,7.65074446 35.7826087,8.55652174 L36.8869565,22.6086957 Z" id="Path" fill="#9DCC6B"></path>
                    <path d="M38.1217391,38.2608696 C38.1217391,39.2213648 37.3431039,40 36.3826087,40 L21.7391304,40 L18.2608696,27.826087 L37.2956522,27.826087 C38.373913,41.426087 38.1217391,37.4347826 38.1217391,38.2608696 Z" id="Path" fill="#6FABE6"></path>
                    <path d="M16.5217391,40.000009 L1.87826087,40.000009 C1.39186517,40.0015592 0.927043326,39.7993576 0.596580482,39.4424577 C0.266117638,39.0855578 0.10021608,38.6065782 0.139130435,38.1217391 L0.965217391,27.826087 L13.0434783,27.826087 C16.5217391,40.0695652 15.8521739,37.6347826 16.5217391,40.000009 Z" id="Path" fill="#6FABE6"></path>
                    <path d="M22.6086957,6.95651265 L22.6086957,22.6086957 L1.37391304,22.6086957 L2.47826087,8.55652174 C2.55095135,7.65074446 3.30870659,6.95360964 4.2173913,6.95651265 L5.2173913,6.95651265 C5.2173913,10.8 12.173913,19.1304348 12.173913,19.1304348 C12.173913,19.1304348 19.1304348,10.8 19.1304348,6.95651265 L22.6086957,6.95651265 Z" id="Path" fill="#9DCC6B"></path>
                    <path d="M36.8869565,22.6086957 L27.826087,22.6086957 L27.826087,6.95651265 L34.0434783,6.95651265 C34.952163,6.95360964 35.7099182,7.65074446 35.7826087,8.55652174 L36.8869565,22.6086957 Z" id="Path" fill="#9DCC6B"></path>
                    <path d="M38.1217391,38.2608696 C38.1217391,39.2213648 37.3431039,40 36.3826087,40 L21.7391304,40 L18.2608696,27.826087 L37.2956522,27.826087 C38.373913,41.426087 38.1217391,37.4347826 38.1217391,38.2608696 Z" id="Path" fill="#6FABE6"></path>
                    <path d="M21.7391304,40 L16.5217391,40 L13.0434783,27.826087 L0.965217391,27.826087 L1.37391304,22.6086957 L22.6086957,22.6086957 L22.6086957,6.95652174 L27.826087,6.95652174 L27.826087,22.6086957 L36.8869565,22.6086957 L37.2956522,27.826087 L18.2608696,27.826087 C21.7391304,40.0695652 21.0695652,37.6347826 21.7391304,40 Z" id="Path" fill="#FFCC66"></path>
                    <path d="M18.2608696,27.826087 L21.2434783,38.2608696 L16.026087,38.2608696 L13.0434783,27.826087 L3.47826087,27.826087 C3.65217391,25.6347826 3.56521739,26.7913043 3.88695652,22.6086957 L22.6086957,22.6086957 L22.6086957,6.95652174 L27.826087,6.95652174 L27.826087,22.6086957 L36.8869565,22.6086957 L37.2956522,27.826087 L18.2608696,27.826087 Z" id="Path" fill="#FFDE76"></path>
                    <path d="M22.6086957,6.95652174 L22.6086957,22.6086957 L3.84347826,22.6086957 C4.02608696,20.3043478 3.84347826,22.2782609 4.76521739,10.8869565 C6.40705967,13.7973597 8.30438253,16.5560439 10.4347826,19.1304348 C10.4347826,19.1304348 10.773913,18.7217391 11.3043478,18.0434783 C11.8347826,18.7217391 12.173913,19.1304348 12.173913,19.1304348 C12.173913,19.1304348 19.1304348,10.8 19.1304348,6.95652174 L22.6086957,6.95652174 Z" id="Path" fill="#B5E08C"></path>
                    <path d="M16.026087,38.2608785 L4.48695652,38.2608785 C4.00056082,38.2624287 3.53573898,38.0602271 3.20527613,37.7033273 C2.87481329,37.3464274 2.70891173,36.8674477 2.74782609,36.3826087 L3.47826087,27.826087 L13.0434783,27.826087 L16.026087,38.2608785 Z" id="Path" fill="#82BCF4"></path>
                    <path d="M38.1217391,38.2608696 L21.2434783,38.2608696 L18.2608696,27.826087 L37.2956522,27.826087 C38.373913,41.426087 38.1217391,37.4347826 38.1217391,38.2608696 Z" id="Path" fill="#82BCF4"></path>
                    <path d="M36.8869565,22.6086957 L27.826087,22.6086957 L27.826087,6.95651265 L34.0434783,6.95651265 C34.952163,6.95360964 35.7099182,7.65074446 35.7826087,8.55652174 L36.8869565,22.6086957 Z" id="Path" fill="#B5E08C"></path>
                    <path d="M19.1304348,6.95652174 C19.1304348,10.1652174 14.1652174,16.7304348 12.173913,19.1304348 C12.173913,19.1304348 5.2173913,10.8 5.2173913,6.95652174 C5.2173913,3.11454087 8.33193218,0 12.173913,0 C16.0158939,0 19.1304348,3.11454087 19.1304348,6.95652174 Z" id="Path" fill="#DB5669"></path>
                    <path d="M19.1304348,6.95652174 C19.1304348,9.62608696 15.7652174,14.4695652 13.7217391,17.1652174 C12.626087,15.8173913 6.95649471,8.69565217 6.95649471,5.2173913 C6.95253252,3.79776878 7.39013033,2.41204237 8.20869565,1.25217391 C10.3339511,-0.222185833 13.1017466,-0.395655625 15.3944571,0.801810971 C17.6871675,1.99927757 19.1261831,4.36993532 19.1304348,6.95652174 Z" id="Path" fill="#F26674"></path>
                    <circle id="Oval" fill="#FFFFFF" cx="12.173913" cy="6.95652174" r="2.60869565"></circle>
                </g>
            </g>
        </g>
    </g>
</svg>