<?xml version="1.0" encoding="UTF-8"?>
<svg width="25px" height="25px" viewBox="0 0 25 25" version="1.1" xmlns="http://www.w3.org/2000/svg" xmlns:xlink="http://www.w3.org/1999/xlink">
    <!-- Generator: Sketch 57.1 (83088) - https://sketch.com -->
    <title>ico avaliacoes</title>
    <desc>Created with Sketch.</desc>
    <g id="ui-app-stroogo" stroke="none" stroke-width="1" fill="none" fill-rule="evenodd">
        <g id="app-admin-home" transform="translate(-225.000000, -755.000000)" fill="#000000" fill-rule="nonzero">
            <g id="menu-footer-admin" transform="translate(0.000000, 722.000000)">
                <g id="menu-footer-chef">
                    <g id="links" transform="translate(17.000000, 26.000000)">
                        <g id="avaliacoes" transform="translate(188.000000, 7.000000)">
                            <path d="M32.5,0 C39.4193878,0 45,5.58061224 45,12.5 C45,19.4193878 39.4193878,25 32.5,25 C25.5806122,25 20,19.4193878 20,12.5 C20,5.58061224 25.5806122,0 32.5,0 Z M32.5,0.892857143 C26.0714286,0.892857143 20.8928571,6.07142857 20.8928571,12.5 C20.8928571,18.9285714 26.0714286,24.1071429 32.5,24.1071429 C38.9285714,24.1071429 44.1071429,18.9285714 44.1071429,12.5 C44.1071429,6.07142857 38.9285714,0.892857143 32.5,0.892857143 Z M30.6693878,6.02653061 C31.3390306,5.66938776 32.142602,5.9372449 32.455102,6.60688776 L32.455102,6.60688776 L33.080102,7.85688776 C33.2586735,7.72295918 33.5265306,7.67831633 33.7497449,7.67831633 C34.2854592,7.63367347 34.7318878,7.94617347 34.955102,8.39260204 L34.955102,8.39260204 L35.3568878,9.15153061 L36.205102,9.28545918 C36.6961735,9.3747449 37.0979592,9.6872449 37.2765306,10.1783163 C37.3658163,10.4015306 37.3658163,10.6247449 37.3211735,10.8479592 L37.3211735,10.8479592 L38.705102,11.0265306 C39.017602,11.0711735 39.2854592,11.205102 39.5533163,11.517602 C40.0443878,12.0533163 40.0443878,12.9015306 39.5086735,13.392602 L39.5086735,13.392602 L37.8122449,14.9997449 C37.7229592,15.0890306 37.6336735,15.267602 37.6783163,15.4015306 L37.6783163,15.4015306 L38.080102,17.6783163 C38.1247449,17.9461735 38.080102,18.2586735 37.9461735,18.5265306 C37.6336735,19.1961735 36.830102,19.4640306 36.1604592,19.1068878 L36.1604592,19.1068878 L34.017602,17.9908163 C33.8836735,17.9461735 33.7497449,17.9461735 33.6158163,17.9908163 L33.6158163,17.9908163 L31.4729592,19.1068878 C30.9818878,19.330102 30.4461735,19.2854592 30.0443878,18.9729592 C29.642602,18.705102 29.4193878,18.1693878 29.5086735,17.6783163 L29.5086735,17.6783163 L29.642602,16.9193878 L28.9283163,17.2765306 C28.7497449,17.3658163 28.5265306,17.4104592 28.3033163,17.4104592 L28.3033163,17.4104592 L28.080102,17.4104592 C27.3658163,17.2765306 26.8747449,16.5622449 27.0086735,15.8479592 L27.0086735,15.8479592 L27.4104592,13.5711735 C27.455102,13.4372449 27.3658163,13.2586735 27.2765306,13.1693878 L27.2765306,13.1693878 L25.580102,11.5622449 C25.3568878,11.3836735 25.2229592,11.1158163 25.1783163,10.8033163 C25.0443878,10.0890306 25.580102,9.3747449 26.2943878,9.28545918 L26.2943878,9.28545918 L28.6604592,8.92831633 C28.8390306,8.92831633 28.9729592,8.83903061 29.017602,8.70510204 L29.017602,8.70510204 L30.0890306,6.60688776 C30.2229592,6.38367347 30.4015306,6.16045918 30.6693878,6.02653061 Z M36.7854592,11.6964286 L35.267602,13.1696429 C35.1783163,13.2589286 35.0890306,13.4375 35.1336735,13.5714286 L35.1336735,13.5714286 L35.5354592,15.8482143 C35.6247449,16.4732143 35.267602,17.0982143 34.6872449,17.3214286 L34.6872449,17.3214286 L36.517602,18.2589286 C36.6515306,18.3482143 36.830102,18.3035714 36.9640306,18.2142857 C37.0979592,18.125 37.1872449,17.9464286 37.142602,17.7678571 L37.142602,17.7678571 L36.7408163,15.4910714 C36.6961735,15.0446429 36.830102,14.5982143 37.142602,14.2857143 L37.142602,14.2857143 L38.8390306,12.6785714 C38.9283163,12.5446429 38.9729592,12.3660714 38.9283163,12.2767857 C38.8836735,12.0982143 38.7497449,12.0089286 38.5711735,11.9642857 L38.5711735,11.9642857 L36.7854592,11.6964286 Z M31.3836735,16.0714286 C31.2497449,16.0267857 31.1158163,16.0267857 30.9818878,16.0714286 L30.9818878,16.0714286 L30.580102,16.2946429 L30.3122449,17.7232143 C30.267602,17.9017857 30.3568878,18.0803571 30.4908163,18.1696429 C30.6247449,18.2589286 30.8479592,18.3035714 30.9818878,18.2142857 L30.9818878,18.2142857 L33.080102,17.0535714 L33.2140306,17.0089286 Z M31.2943878,6.74107143 C31.1158163,6.69642857 30.9818878,6.83035714 30.892602,6.96428571 L30.892602,6.96428571 L29.8211735,9.0625 C29.5979592,9.41964286 29.2408163,9.73214286 28.7943878,9.77678571 L28.7943878,9.77678571 L26.4283163,10.1339286 C26.3390306,10.1339286 26.2497449,10.1785714 26.1604592,10.2678571 C25.9818878,10.4464286 25.9818878,10.7142857 26.1604592,10.8928571 L26.1604592,10.8928571 L27.8568878,12.5 C28.1693878,12.7678571 28.3479592,13.2142857 28.2586735,13.6607143 L28.2586735,13.6607143 L27.8568878,15.9375 C27.8122449,16.1160714 27.9015306,16.2946429 28.0354592,16.3839286 C28.1693878,16.4732143 28.3479592,16.5178571 28.4818878,16.4285714 L28.4818878,16.4285714 L30.6247449,15.3571429 C31.0265306,15.1785714 31.4729592,15.1785714 31.8747449,15.3571429 L31.8747449,15.3571429 L34.017602,16.4732143 C34.1068878,16.5178571 34.1961735,16.5178571 34.2854592,16.5178571 C34.5086735,16.4732143 34.6872449,16.2053571 34.642602,15.9821429 L34.642602,15.9821429 L34.2408163,13.7053571 C34.1515306,13.2589286 34.330102,12.8125 34.642602,12.5 L34.642602,12.5 L36.3836735,10.8928571 C36.517602,10.7589286 36.5622449,10.625 36.517602,10.4464286 C36.4729592,10.2678571 36.3390306,10.1785714 36.1604592,10.1339286 L36.1604592,10.1339286 L33.7943878,9.77678571 C33.3479592,9.73214286 32.9461735,9.46428571 32.767602,9.0625 L32.767602,9.0625 L31.6961735,6.96428571 C31.6068878,6.83035714 31.4729592,6.74107143 31.2943878,6.74107143 Z M33.7497449,8.52653061 C33.6604592,8.48188776 33.5265306,8.52653061 33.392602,8.66045918 L33.392602,8.66045918 L33.4372449,8.70510204 C33.5265306,8.83903061 33.6604592,8.92831633 33.7943878,8.92831633 L33.7943878,8.92831633 L34.2408163,8.97295918 L34.1515306,8.7497449 C34.0622449,8.61581633 33.9283163,8.52653061 33.7497449,8.52653061 Z" id="ico-avaliacoes"></path>
                        </g>
                    </g>
                </g>
            </g>
        </g>
    </g>
</svg>