<?xml version="1.0" encoding="UTF-8"?>
<svg width="14px" height="12px" viewBox="0 0 14 12" version="1.1" xmlns="http://www.w3.org/2000/svg" xmlns:xlink="http://www.w3.org/1999/xlink">
    <!-- Generator: Sketch 57.1 (83088) - https://sketch.com -->
    <title>ico-chat</title>
    <desc>Created with Sketch.</desc>
    <g id="ui-app-stroogo" stroke="none" stroke-width="1" fill="none" fill-rule="evenodd">
        <g id="pagina-do-produto" transform="translate(-18.000000, -536.000000)" fill="#4D4D4D" fill-rule="nonzero">
            <g id="observação" transform="translate(5.000000, 532.000000)">
                <path d="M13.3686733,15.9984397 C13.159992,15.9821192 12.9992905,15.8077562 13.0000024,15.598525 L13.0000024,4.39991466 C13.0000024,4.1790992 13.1789718,4 13.3999194,4 L26.1983312,4 C26.419286,4 26.5982459,4.17910635 26.5982459,4.39991466 L26.5982459,12.7988724 C26.5982459,13.0198272 26.4192788,13.1987871 26.1983312,13.1989299 L16.7555744,13.1989299 L13.6622083,15.9047727 C13.5808862,15.9739606 13.4750101,16.0077171 13.3685768,15.9985111 L13.3686733,15.9984397 Z M13.7997876,14.7173487 L16.3370549,12.4988739 C16.4095888,12.4348462 16.5027701,12.3994149 16.5994402,12.3988578 L25.7982987,12.3988578 L25.7982987,4.79980075 L13.7997876,4.79980075 L13.7997876,14.7173487 Z M16.1995006,10.9992386 C15.9785458,10.9992386 15.7995859,10.8201323 15.7995859,10.5993239 C15.7995859,10.3783692 15.9786922,10.1994093 16.1995006,10.1994093 L21.7988057,10.1994093 C22.0197605,10.1994093 22.1987204,10.3785156 22.1987204,10.5993239 C22.1987204,10.8202787 22.0196141,10.9992386 21.7988057,10.9992386 L16.1995006,10.9992386 Z M16.1995006,8.99948676 C15.9785458,8.99948676 15.7995859,8.82038041 15.7995859,8.5995721 C15.7995859,8.37861737 15.9786922,8.19965744 16.1995006,8.19965744 L23.3986072,8.19965744 C23.619562,8.19965744 23.7985219,8.37876378 23.7985219,8.5995721 C23.7985219,8.82052682 23.6194155,8.99948676 23.3986072,8.99948676 L16.1995006,8.99948676 Z M16.1995006,6.99973491 C15.9785458,6.99973491 15.7995859,6.82062856 15.7995859,6.59982025 C15.7995859,6.37886552 15.9786922,6.19990559 16.1995006,6.19990559 L23.3986072,6.19990559 C23.619562,6.19990559 23.7985219,6.37901193 23.7985219,6.59982025 C23.7985219,6.82077497 23.6194155,6.99973491 23.3986072,6.99973491 L16.1995006,6.99973491 Z" id="ico-chat"></path>
            </g>
        </g>
    </g>
</svg>