<?xml version="1.0" encoding="UTF-8"?>
<svg width="28px" height="41px" viewBox="0 0 28 41" version="1.1" xmlns="http://www.w3.org/2000/svg" xmlns:xlink="http://www.w3.org/1999/xlink">
    <!-- Generator: Sketch 57.1 (83088) - https://sketch.com -->
    <title>ico-chef</title>
    <desc>Created with Sketch.</desc>
    <g id="ui-app-stroogo" stroke="none" stroke-width="1" fill="none" fill-rule="evenodd">
        <g id="login-cadastro-tipo" transform="translate(-67.000000, -434.000000)" fill="#4D4D4D" fill-rule="nonzero">
            <g id="bt-chef" transform="translate(40.000000, 420.000000)">
                <path d="M36.6820391,34.1160879 C37.4611082,34.1160879 38.2021151,34.4569177 38.6958008,34.9984268 L38.8139485,35.1379037 L41.1236823,38.1580625 L43.4334161,35.1375865 C43.9253403,34.5635968 44.6445429,34.178891 45.380979,34.1231019 L45.5653255,34.1160879 L49.1187268,34.1157706 C51.9770015,34.1157706 54.3283696,36.3959834 54.4441516,39.2271414 L54.4486193,39.4459803 L54.4489291,51.8825812 C54.4489291,53.292025 53.3400143,54.4550759 51.9516736,54.5424564 L51.7837846,54.5477258 L30.4638973,54.5477258 C29.0544535,54.5477258 27.8914026,53.4388109 27.8040221,52.0504703 L27.7987528,51.8825812 L27.7987528,39.4459803 C27.7987528,36.5877056 30.078664,34.2363376 32.909807,34.1205556 L33.1286453,34.1160879 L36.6820391,34.1160879 Z M36.6822052,35.8929756 L33.1288114,35.8929756 C31.2374543,35.8929756 29.6789481,37.3904703 29.5803674,39.258385 L29.5754175,39.4463695 L29.5757273,51.8829704 C29.5757273,52.3339607 29.9162598,52.709205 30.3529439,52.7642663 L30.4639766,52.7712197 L51.7838639,52.7709099 C52.2348542,52.7709099 52.6102265,52.4303774 52.6653075,51.9936933 L52.6722634,51.8826606 L52.6722634,39.4463695 C52.6722634,37.5550124 51.1747687,35.9965062 49.306854,35.8979255 L49.1188696,35.8929756 L45.5654757,35.8929756 C45.3370959,35.8929756 45.1084831,35.9908556 44.936028,36.1587147 L44.8547414,36.2483467 L41.8345827,40.2014091 C41.5045584,40.6139653 40.8681856,40.6434336 40.494429,40.289814 L40.4130982,40.2014091 L37.3929395,36.2483467 C37.2151072,36.0262011 36.9486562,35.8929756 36.6822052,35.8929756 Z M38.0146907,49.217754 C38.5051433,49.217754 38.90294,49.6152572 38.90294,50.1060033 C38.90294,50.5967652 38.5051274,50.9942526 38.0146907,50.9942526 C37.5239288,50.9942526 37.1264414,50.5967493 37.1264414,50.1060033 C37.1264414,49.6152572 37.5239447,49.217754 38.0146907,49.217754 Z M44.2329912,49.217754 C44.7237531,49.217754 45.1212405,49.6152572 45.1212405,50.1060033 C45.1212405,50.5967652 44.7237372,50.9942526 44.2329912,50.9942526 C43.7425386,50.9942526 43.3447418,50.5967493 43.3447418,50.1060033 C43.3447418,49.6152572 43.7425544,49.217754 44.2329912,49.217754 Z M38.0146907,45.6644394 C38.5051433,45.6644394 38.90294,46.062252 38.90294,46.5526887 C38.90294,47.0434507 38.5051274,47.4409381 38.0146907,47.4409381 C37.5239288,47.4409381 37.1264414,47.0434348 37.1264414,46.5526887 C37.1264414,46.0622362 37.5239447,45.6644394 38.0146907,45.6644394 Z M44.2329912,45.6644394 C44.7237531,45.6644394 45.1212405,46.062252 45.1212405,46.5526887 C45.1212405,47.0434507 44.7237372,47.4409381 44.2329912,47.4409381 C43.7425386,47.4409381 43.3447418,47.0434348 43.3447418,46.5526887 C43.3447418,46.0622362 43.7425544,45.6644394 44.2329912,45.6644394 Z M38.0146907,42.1111249 C38.5051433,42.1111249 38.90294,42.5089375 38.90294,42.9993742 C38.90294,43.4901361 38.5051274,43.8879408 38.0146907,43.8879408 C37.5239288,43.8879408 37.1264414,43.4901282 37.1264414,42.9993742 C37.1264414,42.5089216 37.5239447,42.1111249 38.0146907,42.1111249 Z M44.2329912,42.1111249 C44.7237531,42.1111249 45.1212405,42.5089375 45.1212405,42.9993742 C45.1212405,43.4901361 44.7237372,43.8879408 44.2329912,43.8879408 C43.7425386,43.8879408 43.3447418,43.4901282 43.3447418,42.9993742 C43.3447418,42.5089216 43.7425544,42.1111249 44.2329912,42.1111249 Z M33.5284487,14.5728896 C34.7721088,14.4396403 36.0600267,14.8393089 36.9929304,15.6833004 C37.215068,15.9051287 37.3929083,16.1272744 37.5704392,16.34942 C38.3700936,15.2836556 39.6580114,14.5729213 41.123833,14.5729213 C42.5896546,14.5729213 43.8778897,15.2833463 44.6772269,16.34942 C44.8547498,16.1275916 45.03259,15.905446 45.2544263,15.7276058 C46.1870128,14.883646 47.4752479,14.4839695 48.718908,14.617195 C50.7178854,14.8393565 52.3611823,16.438348 52.6276333,18.4370081 C52.8497948,20.036079 52.1837069,21.6793283 50.8511347,22.612232 C50.5846837,22.7900643 50.4514582,23.0565153 50.4514582,23.3229663 L50.4514582,23.3229663 L50.4514582,28.7861081 C50.4514582,30.2519297 49.2520559,31.4512526 47.7863136,31.4512526 L47.7863136,31.4512526 L34.4613841,31.4512526 C32.9955625,31.4512526 31.7962396,30.2518504 31.7962396,28.7861081 L31.7962396,28.7861081 L31.7962396,23.3229663 C31.7962396,23.0565232 31.6630141,22.7897629 31.3965631,22.612232 C30.1086293,21.6350229 29.3978871,20.0360314 29.6197234,18.3927027 C29.8861427,16.3940426 31.5297886,14.7950352 33.5284487,14.5728896 Z M48.4969139,16.3494358 C47.7419139,16.2605157 46.9868504,16.5269588 46.4093416,17.0155554 C45.832158,17.5484733 45.5210923,18.2591758 45.5210923,19.0142155 C45.5210923,19.5027883 45.1214396,19.9024648 44.632843,19.9024648 C44.1442701,19.9024648 43.7445936,19.5028121 43.7445936,19.0142155 C43.7445936,17.548394 42.5451913,16.349071 41.0794491,16.349071 C39.6136275,16.349071 38.4143046,17.5484733 38.4143046,19.0142155 C38.4143046,19.5027883 38.0146281,19.9024648 37.5260552,19.9024648 C37.0374824,19.9024648 36.6378059,19.5028121 36.6378059,19.0142155 C36.6378059,18.2592155 36.3270654,17.504152 35.7495566,17.0155554 C35.2609759,16.5715814 34.6391775,16.3494358 33.973058,16.3494358 L33.973058,16.3494358 L33.6619922,16.3494358 C32.4626693,16.4826851 31.485484,17.4598466 31.3522585,18.6591696 C31.2631872,19.6363708 31.6628558,20.5692507 32.4625102,21.1464501 C33.1732445,21.6796059 33.572921,22.4789431 33.572921,23.3229346 L33.572921,23.3229346 L33.572921,28.7860764 C33.572921,29.2746492 33.9725737,29.6743257 34.4611703,29.6743257 L34.4611703,29.6743257 L47.6972669,29.6743257 C48.1858398,29.6743257 48.5855163,29.274673 48.5855163,28.7860764 L48.5855163,28.7860764 L48.5858261,23.3229346 C48.5858261,22.4790224 48.9855026,21.6793521 49.6962369,21.1464501 C50.4069711,20.6578694 50.8066477,19.8585322 50.8066477,19.0145407 L50.8066477,19.0145407 L50.8066477,18.6591696 C50.6733984,17.4598466 49.6962369,16.4826613 48.4969139,16.3494358 Z" id="ico-chef"></path>
            </g>
        </g>
    </g>
</svg>