<?xml version="1.0" encoding="UTF-8"?>
<svg width="20px" height="20px" viewBox="0 0 20 20" version="1.1" xmlns="http://www.w3.org/2000/svg" xmlns:xlink="http://www.w3.org/1999/xlink">
    <!-- Generator: Sketch 57.1 (83088) - https://sketch.com -->
    <title>chart</title>
    <desc>Created with Sketch.</desc>
    <g id="ui-app-stroogo" stroke="none" stroke-width="1" fill="none" fill-rule="evenodd">
        <g id="app-chef---relatorio-de-pedidos" transform="translate(-90.000000, -195.000000)" fill="#49751B" fill-rule="nonzero">
            <g id="box-filtro">
                <g id="br-cta-verde1" transform="translate(5.000000, 180.000000)">
                    <path d="M94.3752465,15.0000255 C93.7236396,15.0000255 93.1251362,14.9839716 93.1251362,15.7572108 L93.1251362,16.8746589 C88.5759305,17.3685027 85,21.2665368 85,25.9375713 C85,30.9422683 89.057635,35 94.0624287,35 C97.7537555,35 100.924783,32.789044 102.336042,29.6233846 L103.116491,29.8942998 C103.575759,30.0535622 103.849494,29.8584046 104.053928,29.4522247 C104.593089,28.3831405 104.999878,26.9905986 104.999878,25.357156 C104.999878,19.6366732 100.003403,15.0000255 94.3748112,15.0000255 L94.3752465,15.0000255 Z M86.2501102,25.9377164 C86.2501102,22.0064562 89.3231045,18.6739413 93.1250395,18.125011 L93.1250395,25.9285272 L88.088906,30.9719153 C86.9417625,29.6122609 86.2501102,27.8560223 86.2501102,25.9377164 Z M94.0632993,33.7499382 C92.1166521,33.7499382 90.3360865,33.0378763 88.9681618,31.8599734 L93.9994589,26.8223889 L101.068811,29.2845954 C100.011624,31.9550085 96.9773214,33.750325 94.0632993,33.7499382 Z M102.845217,28.508258 L94.3757301,25.6253339 L94.3757301,16.2494031 C99.2377536,16.2253251 103.68143,20.4261656 103.68143,25.3564306 C103.681807,26.6428137 103.345527,27.618749 102.845653,28.5078227 L102.845217,28.508258 Z" id="chart"></path>
                </g>
            </g>
        </g>
    </g>
</svg>