<?xml version="1.0" encoding="UTF-8"?>
<svg width="20px" height="25px" viewBox="0 0 20 25" version="1.1" xmlns="http://www.w3.org/2000/svg" xmlns:xlink="http://www.w3.org/1999/xlink">
    <!-- Generator: Sketch 57.1 (83088) - https://sketch.com -->
    <title>ico gestao</title>
    <desc>Created with Sketch.</desc>
    <g id="Symbols" stroke="none" stroke-width="1" fill="none" fill-rule="evenodd">
        <g id="menu-footer-chef" transform="translate(-121.000000, -25.000000)" fill="#000000" fill-rule="nonzero">
            <g id="links">
                <g transform="translate(26.000000, 20.000000)">
                    <g id="gestao" transform="translate(85.000000, 5.000000)">
                        <path d="M19.8837796,0 C19.4668795,0 19.0594997,0.0458267217 18.6665406,0.118214784 C18.530884,0.143966846 18.4321355,0.261777251 18.4303083,0.399665948 L18.4303083,1.69881907 C18.0636934,1.80487132 17.714728,1.94579676 17.3856183,2.12565993 L16.468056,1.20830532 C16.3668729,1.10996171 16.2099228,1.09860379 16.0955598,1.18093107 C15.7666628,1.40763269 15.4456458,1.65825966 15.1508486,1.95309324 C14.856015,2.24792682 14.6053776,2.5689023 14.3786864,2.89780445 C14.2963622,3.01216751 14.307715,3.16911758 14.4060606,3.27030068 L15.3234153,4.18786293 C15.1435573,4.51696234 15.0026266,4.86591216 14.8965744,5.23255292 L13.5974213,5.23255292 C13.4595378,5.23437787 13.3417227,5.33312867 13.3159701,5.46878523 C13.2435815,5.86175998 13.1977553,6.26913457 13.1977553,6.68602427 C13.1977553,7.10291398 13.243582,7.51030415 13.3159701,7.90326332 C13.3417222,8.03891988 13.4595326,8.13766839 13.5974213,8.13949563 L14.8965744,8.13949563 C15.0026266,8.50611044 15.1435521,8.85507583 15.3234153,9.18418562 L14.4060606,10.1017479 C14.307717,10.202931 14.2963591,10.359881 14.3786864,10.4742441 C14.605388,10.8031411 14.856015,11.1241581 15.1508486,11.4189553 C15.4456821,11.7137889 15.7666576,11.9644262 16.0955598,12.1911175 C16.2099228,12.2734416 16.3668729,12.2620889 16.468056,12.1637432 L17.3856183,11.2463886 C17.7147177,11.4262466 18.0636675,11.5671772 18.4303083,11.6732295 L18.4303083,12.9723826 C18.4321332,13.1102661 18.530884,13.2280812 18.6665406,13.2538338 C19.0595153,13.3262223 19.4668899,13.3720485 19.8837796,13.3720485 C20.3006693,13.3720485 20.7080595,13.3262218 21.1010186,13.2538338 C21.2366752,13.2280817 21.3354237,13.1102713 21.337251,12.9723826 L21.337251,11.6732295 C21.7038658,11.5671772 22.0528312,11.4262518 22.3819409,11.2463886 L23.2995032,12.1637432 C23.4006863,12.2620868 23.5576364,12.2734448 23.6719994,12.1911175 C24.0008964,11.9644159 24.3219134,11.7137889 24.6167106,11.4189553 C24.9115442,11.1241217 25.1621816,10.8031462 25.3888728,10.4742441 C25.471197,10.359881 25.4598442,10.202931 25.3614986,10.1017479 L24.4441439,9.18418562 C24.6240019,8.85508621 24.7649326,8.50613639 24.8709848,8.13949563 L26.1701379,8.13949563 C26.3080214,8.13767068 26.4258365,8.03891988 26.4515891,7.90326332 C26.5239777,7.51028857 26.5698039,7.10291398 26.5698039,6.68602427 C26.5698039,6.26913457 26.5239772,5.8617444 26.4515891,5.46878523 C26.425837,5.33312867 26.3080266,5.23438016 26.1701379,5.23255292 L24.8709848,5.23255292 C24.7649326,4.86593811 24.6240071,4.51697272 24.4441439,4.18786293 L25.3614986,3.27030068 C25.4598422,3.16911758 25.4712001,3.01216751 25.3888728,2.89780445 C25.1621712,2.56890749 24.9115442,2.24789048 24.6167106,1.95309324 C24.3218771,1.65825966 24.0009016,1.40762231 23.6719994,1.18093107 C23.5576364,1.0986069 23.4006863,1.10995963 23.2995032,1.20830532 L22.3819409,2.12565993 C22.0528415,1.94580195 21.7038917,1.80487132 21.337251,1.69881907 L21.337251,0.399665948 C21.335426,0.261782442 21.2366752,0.143967366 21.1010186,0.118214784 C20.7080439,0.0458262026 20.3006693,0 19.8837796,0 L19.8837796,0 Z M19.8837796,0.581340783 C20.1814527,0.581340783 20.4681831,0.620881715 20.7559206,0.663260052 L20.7559206,1.88963526 C20.7559206,2.0222499 20.8455485,2.13803529 20.9739013,2.17108643 C21.4502176,2.28605683 21.894682,2.46815214 22.3002553,2.71614208 C22.4148208,2.79116769 22.5660919,2.77595804 22.6636257,2.67984552 L23.5357667,1.80770457 C23.7667249,1.9798591 23.9901821,2.16235412 24.1988139,2.37103257 C24.4074456,2.57971101 24.5899666,2.8031423 24.7621419,3.03407979 L23.8900009,3.90622074 C23.7938842,4.00375455 23.7786798,4.15502566 23.8537044,4.26959117 C24.1016943,4.67513853 24.2837896,5.11961843 24.39876,5.59594516 C24.4318122,5.72430317 24.5475965,5.81392589 24.6802112,5.81392589 L25.9065864,5.81392589 C25.9489663,6.10166336 25.9885057,6.38836264 25.9885057,6.68606684 C25.9885057,6.98377105 25.9489647,7.27047032 25.9065864,7.55820779 L24.6802112,7.55820779 C24.5475965,7.55820779 24.4318112,7.6478357 24.39876,7.77618852 C24.2837896,8.25250487 24.1016943,8.6969692 23.8537044,9.10254251 C23.7786788,9.21710802 23.7938884,9.36837913 23.8900009,9.46591295 L24.7621419,10.3380539 C24.5899873,10.5690121 24.4074923,10.7924694 24.1988139,11.0011011 C23.9901354,11.2097328 23.7667041,11.3922538 23.5357667,11.5644291 L22.6636257,10.6922882 C22.5660919,10.5961715 22.4148208,10.580967 22.3002553,10.6559916 C21.8947079,10.9039815 21.450228,11.0860768 20.9739013,11.2010473 C20.8455433,11.2340994 20.7559206,11.3498838 20.7559206,11.4824984 L20.7559206,12.7088736 C20.4681831,12.751456 20.1814838,12.7907929 19.8837796,12.7907929 C19.5860754,12.7907929 19.2993761,12.7514549 19.0116387,12.7088736 L19.0116387,11.4824984 C19.0116387,11.3498838 18.9220107,11.2340984 18.7936579,11.2010473 C18.3173416,11.0860768 17.8728772,10.9039815 17.4673039,10.6559916 C17.3527384,10.580966 17.2014673,10.5961756 17.1039335,10.6922882 L16.2317925,11.5644291 C16.0008343,11.3922746 15.7773771,11.2097796 15.5687453,11.0011011 C15.3601136,10.7924227 15.1775926,10.5689914 15.0054173,10.3380539 L15.8775583,9.46591295 C15.973675,9.36837913 15.9888794,9.21710802 15.9138548,9.10254251 C15.6658649,8.69699515 15.4837696,8.25251525 15.3687992,7.77618852 C15.335747,7.64783051 15.2199627,7.55820779 15.087348,7.55820779 L13.8609728,7.55820779 C13.8185929,7.27047032 13.7790535,6.98377105 13.7790535,6.68606684 C13.7790535,6.38836264 13.8185945,6.10166336 13.8609728,5.81392589 L15.087348,5.81392589 C15.2199627,5.81392589 15.3357481,5.72429798 15.3687992,5.59594516 C15.4837696,5.11962881 15.6658649,4.67516448 15.9138548,4.26959117 C15.9888804,4.15502566 15.9736708,4.00375455 15.8775583,3.90622074 L15.0054173,3.03407979 C15.1775719,2.80312154 15.3600669,2.5796643 15.5687453,2.37103257 C15.7774238,2.16240084 16.0008551,1.97987987 16.2317925,1.80770457 L17.1039335,2.67984552 C17.2014673,2.77596219 17.3527384,2.79116665 17.4673039,2.71614208 C17.8728513,2.46815214 18.3173312,2.28605683 18.7936579,2.17108643 C18.9220159,2.13803425 19.0116387,2.0222499 19.0116387,1.88963526 L19.0116387,0.663260052 C19.2993761,0.620880158 19.5860754,0.581340783 19.8837796,0.581340783 Z M19.8837796,4.06985267 C18.4422372,4.06985267 17.2676163,5.24452546 17.2676163,6.68601597 C17.2676163,8.12750648 18.4422891,9.30217927 19.8837796,9.30217927 C21.3252701,9.30217927 22.4999429,8.12750648 22.4999429,6.68601597 C22.4999429,5.24452546 21.3252701,4.06985267 19.8837796,4.06985267 Z M19.8837796,4.65119345 C21.0110066,4.65119345 21.9186021,5.55878898 21.9186021,6.68601597 C21.9186021,7.81324296 21.0110066,8.72083848 19.8837796,8.72083848 C18.7565526,8.72083848 17.8489571,7.81324296 17.8489571,6.68601597 C17.8489571,5.55878898 18.7565526,4.65119345 19.8837796,4.65119345 Z M19.8837796,15.1162619 C17.1674299,15.1162619 14.7069449,15.9399189 12.915892,17.2964845 C11.1249949,18.6532578 10,20.5585128 10,22.6743669 C10,22.8349663 10.1299776,22.9651463 10.290577,22.9651463 L12.3253995,22.9651463 L12.3253995,24.7092206 C12.3253995,24.8698199 12.4555795,25 12.6161789,25 L27.1509962,25 C27.3115955,25 27.4417756,24.8698199 27.4417756,24.7092206 L27.4417756,22.9651463 L29.4765981,22.9651463 C29.6371975,22.9651463 29.7671751,22.8349663 29.7671751,22.6743669 C29.7671751,20.558409 28.6421802,18.653154 26.8512831,17.2964845 C25.0603859,15.9399189 22.5999528,15.1162619 19.8833955,15.1162619 L19.8837796,15.1162619 Z M19.8837796,15.6978104 C22.4819301,15.6978104 24.820115,16.4894388 26.4971215,17.7598337 C28.0870748,18.9643029 29.0510446,20.5911642 29.1498295,22.3836706 L27.1512921,22.3836706 C26.9906927,22.3836706 26.8605127,22.5138506 26.8605127,22.67445 L26.8605127,24.4187319 L12.907088,24.4187319 L12.907088,22.67445 C12.907088,22.5138506 12.776908,22.3836706 12.6163086,22.3836706 L10.6177713,22.3836706 C10.7165198,20.5911642 11.680526,18.9643029 13.2704792,17.7598337 C14.9474338,16.4894388 17.2856187,15.6978104 19.8838211,15.6978104 L19.8837796,15.6978104 Z" id="ico-gestao"></path>
                    </g>
                </g>
            </g>
        </g>
    </g>
</svg>