<?xml version="1.0" encoding="UTF-8"?>
<svg width="21px" height="21px" viewBox="0 0 21 21" version="1.1" xmlns="http://www.w3.org/2000/svg" xmlns:xlink="http://www.w3.org/1999/xlink">
    <!-- Generator: Sketch 57.1 (83088) - https://sketch.com -->
    <title>ico inicio</title>
    <desc>Created with Sketch.</desc>
    <g id="Symbols" stroke="none" stroke-width="1" fill="none" fill-rule="evenodd">
        <g id="menu-footer-cliente" transform="translate(-42.000000, -31.000000)" fill="#000000" fill-rule="nonzero">
            <g id="links" transform="translate(39.000000, 31.000000)">
                <path d="M12.2750041,0.398892164 C13.005071,-0.132964055 13.9949278,-0.132964055 14.7249946,0.398892164 L14.7249946,0.398892164 L23.1249619,6.49841829 C23.6750268,6.9008164 23.9999793,7.54150933 23.9999793,8.22304044 L23.9999793,8.22304044 L23.9999793,18.8768066 C24.0050791,20.0424672 23.0656341,20.9922916 21.8999667,21 L21.8999667,21 L5.10003208,21 C3.93441952,20.9922916 2.99499712,20.0425527 3.00002005,18.8769466 L3.00002005,18.8769466 L3.00002005,8.22318043 C3.00002005,7.54147523 3.32524764,6.90067092 3.87573685,6.49855829 L3.87573685,6.49855829 Z M13.9019378,1.53216729 C13.6625195,1.35726798 13.3374793,1.35726798 13.0980609,1.53216729 L13.0980609,1.53216729 L4.69809365,7.63183341 C4.50973398,7.77026633 4.39929042,7.98984953 4.39995205,8.22304044 L4.39995205,8.22304044 L4.39995205,18.8768066 C4.3941082,19.2696207 4.70722686,19.593129 5.10003208,19.6000307 L5.10003208,19.6000307 L21.8999667,19.6000307 C22.2924967,19.5927482 22.6051935,19.2693524 22.5993469,18.8768066 L22.5993469,18.8768066 L22.5993469,8.22304044 C22.6000083,7.98984953 22.4895648,7.77026633 22.3019051,7.63183341 L22.3019051,7.63183341 Z M18.209545,11.2137654 C18.4531136,11.1435232 18.7156264,11.2104508 18.8958312,11.388734 C19.076036,11.5670172 19.1457704,11.8287939 19.0781377,12.0730959 C18.5135525,14.7359826 16.2194771,16.6800158 13.4999994,16.8000922 C10.7805216,16.6800158 8.48644623,14.7359826 7.9218611,12.0730959 C7.83529297,11.7020439 8.06140452,11.329904 8.43061683,11.2357733 C8.79982915,11.1416426 9.17651851,11.3600985 9.27817582,11.7273035 C9.68686135,13.7689494 11.4214034,15.2779323 13.4999994,15.4001229 C15.5785954,15.2779323 17.3131374,13.7689494 17.7218229,11.7273035 C17.7794168,11.4804421 17.9659764,11.2840076 18.209545,11.2137654 Z" id="ico-inicio"></path>
            </g>
        </g>
    </g>
</svg>