<?xml version="1.0" encoding="UTF-8"?>
<svg width="21px" height="21px" viewBox="0 0 21 21" version="1.1" xmlns="http://www.w3.org/2000/svg" xmlns:xlink="http://www.w3.org/1999/xlink">
    <!-- Generator: Sketch 57.1 (83088) - https://sketch.com -->
    <title>ico eu</title>
    <desc>Created with Sketch.</desc>
    <g id="Symbols" stroke="none" stroke-width="1" fill="none" fill-rule="evenodd">
        <g id="menu-footer-cliente" transform="translate(-293.000000, -31.000000)" fill="#4D4D4D" fill-rule="nonzero">
            <g id="links" transform="translate(39.000000, 31.000000)">
                <path d="M264.50001,4.26325641e-14 C270.298828,4.26325641e-14 274.999851,4.701355 274.999851,10.5007704 C275.014981,13.3229212 273.875974,16.0286435 271.846993,17.9900599 C271.442403,18.3887 271.013491,18.7477602 270.565086,19.0672424 C269.974213,19.4882317 269.349812,19.840322 268.702626,20.1237659 C268.623512,20.1584146 268.543488,20.1922774 268.463139,20.2250994 C268.330935,20.2790952 268.198489,20.3300409 268.065262,20.3781964 C267.823081,20.4655942 267.583713,20.5422634 267.34239,20.6101122 C267.115715,20.6738308 266.887256,20.7297909 266.657494,20.7779654 C266.222171,20.8692683 265.781999,20.9326168 265.340013,20.9679947 C265.011837,20.9942151 264.683372,21.0050501 264.355079,21.0005316 L264.351227,21.000504 C263.716089,20.9915301 263.081614,20.9250873 262.456258,20.8011788 C262.185033,20.7474129 261.915601,20.6828829 261.648571,20.6075496 C261.436899,20.5478437 261.227218,20.4814963 261.019381,20.4083919 C260.860058,20.3523351 260.701671,20.2922671 260.544523,20.2282208 C260.435467,20.183787 260.327469,20.1376247 260.220114,20.089563 C260.05246,20.0144952 259.886056,19.9346499 259.72142,19.8501539 C259.627454,19.8019389 259.534488,19.7524261 259.442128,19.7014121 C259.035253,19.47668 258.639888,19.2226397 258.259365,18.9394266 C257.992957,18.7411376 257.734179,18.528857 257.483704,18.3023179 L257.31431,18.1457302 L257.31431,18.1457302 L257.147428,17.9845995 L256.908594,17.745784 C255.032332,15.8073785 253.985168,13.2075228 254.000159,10.5007704 C254.000159,4.701355 258.701192,4.26325641e-14 264.50001,4.26325641e-14 Z M264.70124,19.5989062 L264.634294,19.6002617 L264.634294,19.6002617 L264.567316,19.6011806 C264.657959,19.6005116 264.748594,19.598491 264.839189,19.5951189 L264.70124,19.5989062 Z M265.051615,19.5847296 L265.020263,19.5858204 L264.839189,19.5951189 C264.910027,19.5924821 264.980842,19.589019 265.051615,19.5847296 Z M265.325687,19.5639665 L265.27839,19.5671103 L265.175,19.575 L265.149575,19.5773606 L265.149575,19.5773606 L265.123,19.579 L265.051615,19.5847296 C265.143051,19.5791878 265.234419,19.5722668 265.325687,19.5639665 Z M264.50001,1.40010258 C259.474368,1.40010258 255.400128,5.47461033 255.400128,10.5007704 C255.388398,12.5422567 256.074249,14.5136605 257.324437,16.0978383 C258.462504,13.1852616 261.287002,11.2006337 264.50001,11.2006337 C267.709693,11.2006337 270.53167,13.1811562 271.671946,16.0883734 C272.876625,14.5472177 273.595378,12.6079249 273.599741,10.5007704 C273.599741,5.47461033 269.525653,1.40010258 264.50001,1.40010258 Z M264.50001,2.80020532 C266.43295,2.80020532 267.999907,4.36732368 267.999907,6.30046215 C267.9979,8.23276891 266.432118,9.79871252 264.50001,9.80071899 C262.567071,9.80071899 261.000114,8.23360063 261.000114,6.30046215 C261.000114,4.36732368 262.567071,2.80020532 264.50001,2.80020532 Z M264.50001,4.20030805 C263.340246,4.20030805 262.400072,5.14057907 262.400072,6.30046215 C262.401384,7.45980148 263.34079,8.39930457 264.50001,8.40061626 C265.659774,8.40061626 266.599948,7.46034524 266.599948,6.30046215 C266.599948,5.14057907 265.659774,4.20030805 264.50001,4.20030805 Z M264.70124,19.5989062 L264.861104,19.5937291 L264.861104,19.5937291 L265.020263,19.5858204 L265.123,19.579 L265.149575,19.5773606 L265.149575,19.5773606 L265.175,19.575 L265.27839,19.5671103 C267.31206,19.3908673 269.154633,18.5471789 270.585976,17.2561944 C269.831738,14.5142953 267.3434,12.6109321 264.50001,12.6009245 C261.655923,12.6109346 259.167061,14.5152297 258.41341,17.2579462 C260.159365,18.8363524 262.36571,19.6174305 264.567316,19.6011806 L264.70124,19.5989062 L264.70124,19.5989062 Z" id="ico-eu"></path>
            </g>
        </g>
    </g>
</svg>