<?xml version="1.0" encoding="UTF-8"?>
<svg width="16px" height="16px" viewBox="0 0 16 16" version="1.1" xmlns="http://www.w3.org/2000/svg" xmlns:xlink="http://www.w3.org/1999/xlink">
    <!-- Generator: Sketch 57.1 (83088) - https://sketch.com -->
    <title>lupa</title>
    <desc>Created with Sketch.</desc>
    <g id="ui-app-stroogo" stroke="none" stroke-width="1" fill="none" fill-rule="evenodd">
        <g id="pagina-do-chef" transform="translate(-311.000000, -213.000000)" fill="#7B7B7B" fill-rule="nonzero">
            <path d="M326.840042,227.04262 L322.832676,223.018416 C324.533281,220.45909 324.196527,217.05788 322.024467,214.88582 C320.795317,213.673507 319.1789,213 317.44462,213 C315.710339,213 314.093923,213.673507 312.88161,214.88582 C310.372797,217.411471 310.372797,221.503026 312.88161,224.011839 C315.05367,226.183899 318.45488,226.520652 321.014207,224.836885 L325.038411,228.861089 C325.223625,229.046304 325.543541,229.046304 325.728756,228.861089 L326.840042,227.749803 C327.042094,227.547751 327.042094,227.227835 326.840042,227.04262 Z M320.542752,222.546961 C318.842147,224.247566 316.063931,224.247566 314.346488,222.546961 C312.645883,220.846356 312.645883,218.06814 314.346488,216.350697 C316.047093,214.650092 318.825309,214.650092 320.542752,216.350697 C322.243357,218.06814 322.243357,220.846356 320.542752,222.546961 Z" id="lupa"></path>
        </g>
    </g>
</svg>