<?xml version="1.0" encoding="UTF-8"?>
<svg width="27px" height="12px" viewBox="0 0 27 12" version="1.1" xmlns="http://www.w3.org/2000/svg" xmlns:xlink="http://www.w3.org/1999/xlink">
    <!-- Generator: Sketch 57.1 (83088) - https://sketch.com -->
    <title>Combined Shape</title>
    <desc>Created with Sketch.</desc>
    <g id="ui-app-stroogo" stroke="none" stroke-width="1" fill="none" fill-rule="evenodd">
        <g id="categoria" transform="translate(-133.000000, -191.000000)" fill="#E02020" fill-rule="nonzero">
            <g id="grade-cards-chefs" transform="translate(5.000000, 111.000000)">
                <g id="card-chef-big">
                    <path d="M132.909091,80 C135.620307,80 137.818182,82.1978749 137.818182,84.9090909 C137.818182,86.1523297 137.356031,87.2876274 136.594153,88.1525597 L136.426365,88.3337048 L133.589489,91.7118845 L133.563107,91.7118845 L133.465121,91.7951737 C133.29319,91.9238145 133.079734,92 132.848485,92 C132.509103,92 132.208047,91.8359078 132.020328,91.5827344 L131.955392,91.4837652 L129.262173,88.1953601 C128.477604,87.3252464 128,86.1729438 128,84.9090909 C128,82.1978749 130.197875,80 132.909091,80 Z M132.909091,81.8181818 C131.235501,81.8181818 129.878788,83.1748947 129.878788,84.8484849 C129.878788,86.522075 131.235501,87.8787879 132.909091,87.8787879 C134.582681,87.8787879 135.939394,86.522075 135.939394,84.8484849 C135.939394,83.1748947 134.582681,81.8181818 132.909091,81.8181818 Z M155,86 L155,87 L143,87 L143,86 L155,86 Z" id="Combined-Shape"></path>
                </g>
            </g>
        </g>
    </g>
</svg>