<?xml version="1.0" encoding="UTF-8"?>
<svg width="16px" height="16px" viewBox="0 0 16 16" version="1.1" xmlns="http://www.w3.org/2000/svg" xmlns:xlink="http://www.w3.org/1999/xlink">
    <!-- Generator: Sketch 57.1 (83088) - https://sketch.com -->
    <title>lipa</title>
    <desc>Created with Sketch.</desc>
    <g id="ui-app-stroogo" stroke="none" stroke-width="1" fill="none" fill-rule="evenodd">
        <g id="cadastro---chef" transform="translate(-128.000000, -1411.000000)" fill="#FFFFFF" fill-rule="nonzero">
            <path d="M143.848381,1425.04262 L139.838905,1421.01842 C141.540405,1418.45909 141.203475,1415.05788 139.030271,1412.88582 C137.800474,1411.67351 136.183206,1411 134.448013,1411 C132.712819,1411 131.095551,1411.67351 129.882601,1412.88582 C127.372466,1415.41147 127.372466,1419.50303 129.882601,1422.01184 C132.055804,1424.1839 135.458805,1424.52065 138.019479,1422.83689 L142.045802,1426.86109 C142.231113,1427.0463 142.551198,1427.0463 142.73651,1426.86109 L143.848381,1425.7498 C144.05054,1425.54775 144.05054,1425.22783 143.848381,1425.04262 Z M137.547776,1420.54696 C135.846275,1422.24757 133.066596,1422.24757 131.34825,1420.54696 C129.646749,1418.84636 129.646749,1416.06814 131.34825,1414.3507 C133.04975,1412.65009 135.829429,1412.65009 137.547776,1414.3507 C139.249276,1416.06814 139.249276,1418.84636 137.547776,1420.54696 Z" id="lipa"></path>
        </g>
    </g>
</svg>