<?xml version="1.0" encoding="UTF-8"?>
<svg width="12px" height="12px" viewBox="0 0 12 12" version="1.1" xmlns="http://www.w3.org/2000/svg" xmlns:xlink="http://www.w3.org/1999/xlink">
    <!-- Generator: Sketch 57.1 (83088) - https://sketch.com -->
    <title>star</title>
    <desc>Created with Sketch.</desc>
    <g id="ui-app-stroogo" stroke="none" stroke-width="1" fill="none" fill-rule="evenodd">
        <g id="home--clientes" transform="translate(-14.000000, -400.000000)" fill="#F7B500" fill-rule="nonzero">
            <g id="card-chefs" transform="translate(4.000000, 244.000000)">
                <g id="card-chef">
                    <g id="stars" transform="translate(10.000000, 153.000000)">
                        <path d="M0.316359841,8.19229737 L2.65944195,9.8945547 C2.92716194,10.0889577 3.03933288,10.4335873 2.93727462,10.7482781 L2.0417699,13.503319 C1.81330309,14.2070819 2.61872509,14.79242 3.21776852,14.3575746 L5.56085063,12.6550511 C5.82857061,12.460382 6.19076435,12.460382 6.45848433,12.6550511 L8.80156644,14.3575746 C9.40034374,14.79242 10.2060319,14.2070819 9.97756506,13.503319 L9.08245953,10.7482781 C8.97986902,10.4335873 9.09203997,10.0889577 9.36002607,9.8945547 L11.7028421,8.19229737 C12.3013532,7.75718586 11.994114,6.81018629 11.2540252,6.81018629 L8.35780593,6.81018629 C8.02701474,6.81018629 7.73308162,6.59702157 7.63115641,6.28233084 L6.736317,3.52822138 C6.50758407,2.82392621 5.51201701,2.82392621 5.28301796,3.52822138 L4.3876463,6.2824639 C4.2857211,6.59715464 3.99285247,6.81031936 3.66152903,6.81031936 L0.765176694,6.81031936 C0.0250879496,6.81031936 -0.282151337,7.75731892 0.316359841,8.19229737 Z" id="star"></path>
                    </g>
                </g>
            </g>
        </g>
    </g>
</svg>