<?xml version="1.0" encoding="UTF-8"?>
<svg width="20px" height="20px" viewBox="0 0 20 20" version="1.1" xmlns="http://www.w3.org/2000/svg" xmlns:xlink="http://www.w3.org/1999/xlink">
    <!-- Generator: Sketch 57.1 (83088) - https://sketch.com -->
    <title>Shape</title>
    <desc>Created with Sketch.</desc>
    <g id="ui-app-stroogo" stroke="none" stroke-width="1" fill="none" fill-rule="evenodd">
        <g id="meus-pedidos" transform="translate(-23.000000, -192.000000)" fill="#4EA872" fill-rule="nonzero">
            <g id="card-pedidos" transform="translate(5.000000, 116.000000)">
                <path d="M27.7080693,95.2388079 L26.2874726,95.8750101 C25.6695221,96.1518216 24.9423472,95.9569106 24.5456673,95.4084666 L23.6334752,94.1470633 C23.5141855,93.9821479 23.3302933,93.8758308 23.1277137,93.8550432 L21.5792836,93.6958498 C20.905828,93.6265076 20.3735284,93.0942222 20.3042005,92.4207666 L20.1450071,90.8723365 C20.1242183,90.6697498 20.0179023,90.4858719 19.852987,90.3665751 L18.5915837,89.4543829 C18.0431397,89.0577388 17.8482286,88.3305281 18.1248973,87.7125776 L18.7612423,86.2919809 C18.8443965,86.1062779 18.8443965,85.8938009 18.7612423,85.7080693 L18.1248973,84.2874726 C17.8482251,83.6695221 18.0431361,82.9423472 18.5915837,82.5456673 L19.852987,81.6334752 C20.0179023,81.5141855 20.1242194,81.3302933 20.1450071,81.1277137 L20.3042005,79.5792836 C20.3735426,78.905828 20.905828,78.3735284 21.5792836,78.3042005 L23.1277137,78.1450071 C23.3303005,78.1242183 23.5141783,78.0179023 23.6334752,77.852987 L24.5456673,76.5915837 C24.9423115,76.0431397 25.6695221,75.8482286 26.2874726,76.1248973 L27.7080693,76.7612423 C27.8937724,76.8443965 28.1062493,76.8443965 28.2919809,76.7612423 L29.7125776,76.1248973 C30.3305281,75.8482251 31.057703,76.0431361 31.4543829,76.5915837 L32.3665751,77.852987 C32.4858648,78.0179023 32.6697569,78.1242194 32.8723365,78.1450071 L34.4207666,78.3042005 C35.0942222,78.3735426 35.6265219,78.905828 35.6958498,79.5792836 L35.8550432,81.1277137 C35.8758319,81.3303005 35.9821479,81.5141783 36.1470633,81.6334752 L37.4084666,82.5456673 C37.9569106,82.9423115 38.1518216,83.6695221 37.8750101,84.2874726 L37.2388079,85.7080693 C37.1556537,85.8937724 37.1556537,86.1062493 37.2388079,86.2919809 L37.8750101,87.7125776 C38.1518216,88.3305281 37.9569106,89.057703 37.4084666,89.4543829 L36.1470633,90.3665751 C35.9821479,90.4858648 35.8758308,90.6697569 35.8550432,90.8723365 L35.6958498,92.4207666 C35.6265076,93.0942222 35.0942222,93.6265219 34.4207666,93.6958498 L32.8723365,93.8550432 C32.6697498,93.8758319 32.4858719,93.9821479 32.3665751,94.1470633 L31.4543829,95.4084666 C31.0577388,95.9569106 30.3305281,96.1518216 29.7125776,95.8750101 L28.2919809,95.2388079 C28.1062779,95.1556537 27.8938009,95.1556537 27.7080693,95.2388079 Z M24.1403438,84.6485348 L22.9280522,85.8608264 L26.9977174,89.9304916 L33.2450856,83.6831234 L32.0329011,82.4708318 L26.9977888,87.5055869 L24.1403438,84.6485348 Z" id="Shape"></path>
            </g>
        </g>
    </g>
</svg>